<svg width="637" height="128" viewBox="0 0 637 128" fill="none" xmlns="http://www.w3.org/2000/svg">
<path d="M134.371 40.3699C134.371 40.2499 134.451 40.1699 134.571 40.1699H139.751C142.641 40.1699 143.991 41.5999 143.991 43.7099C143.991 45.1599 143.331 46.0599 142.451 46.5399V46.5799C143.331 46.9099 144.231 48.0099 144.231 49.5899C144.231 52.2099 142.491 53.4599 139.611 53.4599H134.571C134.451 53.4599 134.371 53.3799 134.371 53.2599V40.3699ZM139.391 45.6099C140.491 45.6099 141.131 45.0299 141.131 44.0499C141.131 43.0699 140.491 42.5099 139.391 42.5099H137.361C137.281 42.5099 137.241 42.5499 137.241 42.6299V45.5099C137.241 45.5899 137.281 45.6299 137.361 45.6299H139.391V45.6099ZM137.361 51.1399H139.551C140.721 51.1399 141.351 50.5099 141.351 49.4799C141.351 48.4599 140.721 47.8199 139.551 47.8199H137.361C137.281 47.8199 137.241 47.8599 137.241 47.9399V51.0299C137.241 51.1099 137.281 51.1399 137.361 51.1399Z" fill="white"/>
<path d="M149.31 40.3699C149.35 40.2499 149.43 40.1699 149.56 40.1699H152.02C152.16 40.1699 152.23 40.2499 152.27 40.3699L156.77 53.2799C156.81 53.3999 156.77 53.4799 156.63 53.4799H154.09C153.95 53.4799 153.88 53.4199 153.84 53.2799L153.08 50.9499H148.43L147.69 53.2799C147.65 53.4199 147.57 53.4799 147.44 53.4799H144.88C144.74 53.4799 144.7 53.3999 144.74 53.2799L149.31 40.3699ZM152.3 48.4999L150.8 43.8499H150.74L149.24 48.4999H152.3Z" fill="white"/>
<path d="M157.94 40.3699C157.94 40.2499 158.02 40.1699 158.14 40.1699H160.49C160.63 40.1699 160.74 40.2299 160.82 40.3699L165.51 48.7399H165.61V40.3699C165.61 40.2499 165.69 40.1699 165.81 40.1699H168.02C168.14 40.1699 168.22 40.2499 168.22 40.3699V53.2799C168.22 53.3999 168.14 53.4799 168.02 53.4799H165.69C165.53 53.4799 165.44 53.4199 165.36 53.2799L160.65 44.9299H160.55V53.2799C160.55 53.3999 160.47 53.4799 160.35 53.4799H158.14C158.02 53.4799 157.94 53.3999 157.94 53.2799V40.3699Z" fill="white"/>
<path d="M170 46.82C170 44.77 170.08 44.08 170.37 43.22C171.07 41.05 172.77 39.96 175.1 39.96C177.35 39.96 178.99 41.05 179.73 42.91C179.79 43.01 179.75 43.11 179.63 43.14L177.5 44.1C177.38 44.16 177.29 44.12 177.23 44C176.86 43.14 176.23 42.49 175.12 42.49C174.08 42.49 173.42 43.04 173.13 43.95C172.97 44.44 172.92 44.91 172.92 46.81C172.92 48.71 172.98 49.18 173.13 49.67C173.42 50.59 174.09 51.13 175.12 51.13C176.23 51.13 176.86 50.49 177.23 49.63C177.29 49.51 177.39 49.47 177.5 49.53L179.63 50.49C179.75 50.53 179.79 50.63 179.73 50.72C178.99 52.58 177.34 53.67 175.1 53.67C172.77 53.67 171.07 52.57 170.37 50.4C170.08 49.56 170 48.88 170 46.82Z" fill="white"/>
<path d="M181.23 50.4602C180.94 49.5402 180.86 48.8002 180.86 46.8202C180.86 44.8502 180.94 44.1002 181.23 43.1802C181.91 41.0302 183.75 39.9502 186.08 39.9502C188.41 39.9502 190.24 41.0202 190.93 43.1802C191.22 44.1002 191.3 44.8402 191.3 46.8202C191.3 48.7902 191.22 49.5402 190.93 50.4602C190.25 52.6102 188.41 53.6902 186.08 53.6902C183.75 53.6902 181.91 52.6102 181.23 50.4602ZM188.17 49.6802C188.33 49.2102 188.38 48.5702 188.38 46.8202C188.38 45.0702 188.32 44.4402 188.17 43.9602C187.88 43.0402 187.17 42.5002 186.08 42.5002C184.98 42.5002 184.28 43.0502 183.99 43.9602C183.83 44.4302 183.78 45.0702 183.78 46.8202C183.78 48.5702 183.84 49.2102 183.99 49.6802C184.28 50.6002 184.99 51.1402 186.08 51.1402C187.17 51.1402 187.88 50.6002 188.17 49.6802Z" fill="white"/>
<path d="M197.331 40.3699C197.331 40.2499 197.411 40.1699 197.531 40.1699H202.481C204.811 40.1699 206.431 41.1699 207.081 43.1599C207.311 43.8999 207.431 44.6499 207.431 46.8199C207.431 48.9899 207.311 49.7299 207.081 50.4799C206.431 52.4799 204.811 53.4699 202.481 53.4699H197.531C197.411 53.4699 197.331 53.3899 197.331 53.2699V40.3699ZM200.321 50.9099H201.821C203.151 50.9099 203.951 50.5199 204.281 49.4499C204.421 49.0599 204.491 48.5499 204.491 46.8299C204.491 45.1099 204.411 44.5999 204.281 44.2099C203.951 43.1299 203.151 42.7399 201.821 42.7399H200.321C200.241 42.7399 200.201 42.7799 200.201 42.8599V50.7999C200.201 50.8699 200.241 50.9099 200.321 50.9099Z" fill="white"/>
<path d="M209.25 40.3699C209.25 40.2499 209.33 40.1699 209.45 40.1699H217.98C218.1 40.1699 218.18 40.2499 218.18 40.3699V42.4599C218.18 42.5799 218.1 42.6599 217.98 42.6599H212.25C212.17 42.6599 212.13 42.6999 212.13 42.7799V45.4199C212.13 45.4999 212.17 45.5399 212.25 45.5399H217.02C217.14 45.5399 217.22 45.6199 217.22 45.7399V47.8099C217.22 47.9299 217.14 48.0099 217.02 48.0099H212.25C212.17 48.0099 212.13 48.0499 212.13 48.1299V50.8899C212.13 50.9699 212.17 51.0099 212.25 51.0099H217.98C218.1 51.0099 218.18 51.0899 218.18 51.2099V53.2999C218.18 53.4199 218.1 53.4999 217.98 53.4999H209.45C209.33 53.4999 209.25 53.4199 209.25 53.2999V40.3699Z" fill="white"/>
<path d="M137.95 61.5301C137.99 61.4101 138.07 61.3301 138.2 61.3301H140.66C140.8 61.3301 140.87 61.4101 140.91 61.5301L145.41 74.4401C145.45 74.5601 145.41 74.6401 145.27 74.6401H142.73C142.59 74.6401 142.52 74.5801 142.48 74.4401L141.72 72.1101H137.07L136.33 74.4401C136.29 74.5801 136.21 74.6401 136.08 74.6401H133.52C133.38 74.6401 133.34 74.5601 133.38 74.4401L137.95 61.5301ZM140.94 69.6701L139.44 65.0201H139.38L137.88 69.6701H140.94Z" fill="white"/>
<path d="M146.57 61.5301C146.57 61.4101 146.65 61.3301 146.77 61.3301H149.25C149.37 61.3301 149.45 61.4101 149.45 61.5301V71.9501C149.45 72.0301 149.49 72.0701 149.57 72.0701H155.44C155.56 72.0701 155.64 72.1501 155.64 72.2701V74.4401C155.64 74.5601 155.56 74.6401 155.44 74.6401H146.78C146.66 74.6401 146.58 74.5601 146.58 74.4401V61.5301H146.57Z" fill="white"/>
<path d="M156.94 61.5301C156.94 61.4101 157.02 61.3301 157.14 61.3301H159.62C159.74 61.3301 159.82 61.4101 159.82 61.5301V74.4401C159.82 74.5601 159.74 74.6401 159.62 74.6401H157.14C157.02 74.6401 156.94 74.5601 156.94 74.4401V61.5301Z" fill="white"/>
<path d="M161.96 61.5301C161.96 61.4101 162.04 61.3301 162.16 61.3301H164.49C164.65 61.3301 164.75 61.3901 164.8 61.5301L168.16 69.1201H168.24L171.54 61.5301C171.6 61.3901 171.7 61.3301 171.85 61.3301H174.14C174.26 61.3301 174.34 61.4101 174.34 61.5301V74.4401C174.34 74.5601 174.26 74.6401 174.14 74.6401H171.93C171.81 74.6401 171.73 74.5601 171.73 74.4401V66.9501H171.65L169.19 72.5601C169.11 72.7301 168.99 72.8201 168.82 72.8201H167.47C167.29 72.8201 167.18 72.7401 167.1 72.5601L164.64 66.9501H164.56V74.4401C164.56 74.5601 164.48 74.6401 164.36 74.6401H162.15C162.03 74.6401 161.95 74.5601 161.95 74.4401V61.5301H161.96Z" fill="white"/>
<path d="M176.5 61.5301C176.5 61.4101 176.58 61.3301 176.7 61.3301H185.23C185.35 61.3301 185.43 61.4101 185.43 61.5301V63.6201C185.43 63.7401 185.35 63.8201 185.23 63.8201H179.5C179.42 63.8201 179.38 63.8601 179.38 63.9401V66.5801C179.38 66.6601 179.42 66.7001 179.5 66.7001H184.27C184.39 66.7001 184.46 66.7801 184.46 66.9001V68.9701C184.46 69.0901 184.38 69.1701 184.27 69.1701H179.5C179.42 69.1701 179.38 69.2101 179.38 69.2901V72.0501C179.38 72.1301 179.42 72.1701 179.5 72.1701H185.23C185.35 72.1701 185.43 72.2501 185.43 72.3701V74.4601C185.43 74.5801 185.35 74.6601 185.23 74.6601H176.7C176.58 74.6601 176.5 74.5801 176.5 74.4601V61.5301Z" fill="white"/>
<path d="M187.15 61.5301C187.15 61.4101 187.23 61.3301 187.35 61.3301H189.7C189.84 61.3301 189.95 61.3901 190.03 61.5301L194.72 69.9001H194.82V61.5301C194.82 61.4101 194.9 61.3301 195.02 61.3301H197.23C197.35 61.3301 197.43 61.4101 197.43 61.5301V74.4401C197.43 74.5601 197.35 74.6401 197.23 74.6401H194.9C194.74 74.6401 194.65 74.5801 194.57 74.4401L189.86 66.0901H189.76V74.4401C189.76 74.5601 189.68 74.6401 189.56 74.6401H187.35C187.23 74.6401 187.15 74.5601 187.15 74.4401V61.5301Z" fill="white"/>
<path d="M202.51 74.6301C202.39 74.6301 202.31 74.5501 202.31 74.4301V64.0201C202.31 63.9401 202.27 63.9001 202.19 63.9001H198.83C198.71 63.9001 198.63 63.8201 198.63 63.7001V61.5301C198.63 61.4101 198.71 61.3301 198.83 61.3301H208.66C208.78 61.3301 208.86 61.4101 208.86 61.5301V63.7001C208.86 63.8201 208.78 63.9001 208.66 63.9001H205.3C205.22 63.9001 205.18 63.9401 205.18 64.0201V74.4401C205.18 74.5601 205.1 74.6401 204.98 74.6401H202.51V74.6301Z" fill="white"/>
<path d="M209.741 71.6204C209.451 70.7004 209.371 69.9604 209.371 67.9804C209.371 66.0104 209.451 65.2604 209.741 64.3404C210.421 62.1904 212.261 61.1104 214.591 61.1104C216.921 61.1104 218.751 62.1804 219.441 64.3404C219.731 65.2604 219.811 66.0004 219.811 67.9804C219.811 69.9504 219.731 70.7004 219.441 71.6204C218.761 73.7704 216.921 74.8504 214.591 74.8504C212.271 74.8504 210.431 73.7704 209.741 71.6204ZM216.681 70.8404C216.841 70.3704 216.891 69.7304 216.891 67.9804C216.891 66.2404 216.831 65.6004 216.681 65.1204C216.391 64.2004 215.681 63.6604 214.591 63.6604C213.491 63.6604 212.791 64.2104 212.501 65.1204C212.341 65.5904 212.291 66.2304 212.291 67.9804C212.291 69.7204 212.351 70.3704 212.501 70.8404C212.791 71.7604 213.501 72.3004 214.591 72.3004C215.691 72.3004 216.391 71.7604 216.681 70.8404Z" fill="white"/>
<path d="M220.97 73.0304C220.89 72.9504 220.85 72.8204 220.95 72.7004L222.44 71.0004C222.52 70.9004 222.64 70.9004 222.73 70.9804C223.61 71.6804 224.8 72.3504 226.21 72.3504C227.6 72.3504 228.38 71.7004 228.38 70.7604C228.38 69.9804 227.91 69.4904 226.33 69.2704L225.63 69.1704C222.93 68.8004 221.43 67.5304 221.43 65.1804C221.43 62.7404 223.27 61.1104 226.14 61.1104C227.9 61.1104 229.54 61.6404 230.66 62.5004C230.78 62.5804 230.8 62.6604 230.7 62.7904L229.51 64.5704C229.43 64.6704 229.33 64.6904 229.24 64.6304C228.22 63.9604 227.25 63.6104 226.15 63.6104C224.98 63.6104 224.37 64.2104 224.37 65.0604C224.37 65.8204 224.92 66.3104 226.44 66.5204L227.14 66.6204C229.88 66.9904 231.32 68.2404 231.32 70.6504C231.32 73.0504 229.54 74.8404 226.1 74.8404C224.02 74.8504 222.01 74.0304 220.97 73.0304Z" fill="white"/>
<path d="M141.72 95.7902C141.54 95.7902 141.48 95.7302 141.43 95.5902L139.14 90.7202H137.36C137.28 90.7202 137.24 90.7602 137.24 90.8402V95.5902C137.24 95.7102 137.16 95.7902 137.04 95.7902H134.56C134.44 95.7902 134.36 95.7102 134.36 95.5902V82.6902C134.36 82.5702 134.44 82.4902 134.56 82.4902H139.86C142.58 82.4902 144.38 84.1902 144.38 86.6202C144.38 88.3202 143.48 89.6702 142.01 90.3102L144.63 95.5502C144.69 95.6702 144.63 95.7802 144.49 95.7802H141.72V95.7902ZM141.51 86.6202C141.51 85.6202 140.81 84.9802 139.71 84.9802H137.36C137.28 84.9802 137.24 85.0202 137.24 85.1002V88.1702C137.24 88.2502 137.28 88.2902 137.36 88.2902H139.71C140.8 88.2802 141.51 87.6402 141.51 86.6202Z" fill="white"/>
<path d="M146.12 92.7805C145.83 91.8605 145.75 91.1205 145.75 89.1405C145.75 87.1705 145.83 86.4205 146.12 85.5005C146.8 83.3505 148.64 82.2705 150.97 82.2705C153.3 82.2705 155.13 83.3405 155.82 85.5005C156.11 86.4205 156.19 87.1605 156.19 89.1405C156.19 91.1105 156.11 91.8605 155.82 92.7805C155.14 94.9305 153.3 96.0105 150.97 96.0105C148.65 96.0105 146.81 94.9305 146.12 92.7805ZM153.06 92.0005C153.22 91.5305 153.27 90.8905 153.27 89.1405C153.27 87.4005 153.21 86.7605 153.06 86.2805C152.77 85.3605 152.06 84.8205 150.97 84.8205C149.87 84.8205 149.17 85.3705 148.88 86.2805C148.72 86.7505 148.67 87.3905 148.67 89.1405C148.67 90.8805 148.73 91.5305 148.88 92.0005C149.17 92.9205 149.88 93.4605 150.97 93.4605C152.07 93.4605 152.77 92.9205 153.06 92.0005Z" fill="white"/>
<path d="M157.35 94.1905C157.27 94.1105 157.23 93.9805 157.33 93.8605L158.82 92.1605C158.9 92.0605 159.02 92.0605 159.11 92.1405C159.99 92.8405 161.18 93.5105 162.59 93.5105C163.98 93.5105 164.76 92.8605 164.76 91.9205C164.76 91.1405 164.29 90.6505 162.71 90.4305L162.01 90.3305C159.31 89.9605 157.81 88.6905 157.81 86.3405C157.81 83.9005 159.65 82.2705 162.52 82.2705C164.28 82.2705 165.92 82.8005 167.04 83.6605C167.16 83.7405 167.18 83.8205 167.08 83.9505L165.89 85.7305C165.81 85.8305 165.71 85.8505 165.62 85.7905C164.6 85.1205 163.63 84.7705 162.53 84.7705C161.36 84.7705 160.75 85.3705 160.75 86.2205C160.75 86.9805 161.3 87.4705 162.82 87.6805L163.52 87.7805C166.26 88.1505 167.7 89.4005 167.7 91.8105C167.7 94.2205 165.92 96.0005 162.48 96.0005C160.4 96.0105 158.39 95.1805 157.35 94.1905Z" fill="white"/>
<path d="M172.68 82.6902C172.72 82.5702 172.8 82.4902 172.94 82.4902H175.4C175.54 82.4902 175.61 82.5702 175.65 82.6902L180.15 95.6002C180.19 95.7202 180.15 95.8002 180.01 95.8002H177.47C177.33 95.8002 177.26 95.7402 177.22 95.6002L176.46 93.2702H171.81L171.07 95.6002C171.03 95.7402 170.95 95.8002 170.81 95.8002H168.25C168.11 95.8002 168.07 95.7202 168.11 95.6002L172.68 82.6902ZM175.67 90.8202L174.17 86.1702H174.11L172.61 90.8202H175.67Z" fill="white"/>
<path d="M188.66 95.7902C188.48 95.7902 188.42 95.7302 188.37 95.5902L186.08 90.7202H184.3C184.22 90.7202 184.18 90.7602 184.18 90.8402V95.5902C184.18 95.7102 184.1 95.7902 183.98 95.7902H181.5C181.38 95.7902 181.3 95.7102 181.3 95.5902V82.6902C181.3 82.5702 181.38 82.4902 181.5 82.4902H186.8C189.52 82.4902 191.32 84.1902 191.32 86.6202C191.32 88.3202 190.42 89.6702 188.95 90.3102L191.57 95.5502C191.63 95.6702 191.57 95.7802 191.43 95.7802H188.66V95.7902ZM188.44 86.6202C188.44 85.6202 187.74 84.9802 186.64 84.9802H184.29C184.21 84.9802 184.17 85.0202 184.17 85.1002V88.1702C184.17 88.2502 184.21 88.2902 184.29 88.2902H186.64C187.74 88.2802 188.44 87.6402 188.44 86.6202Z" fill="white"/>
<path d="M193.121 82.6902C193.121 82.5702 193.201 82.4902 193.321 82.4902H195.801C195.921 82.4902 196.001 82.5702 196.001 82.6902V95.6002C196.001 95.7202 195.921 95.8002 195.801 95.8002H193.321C193.201 95.8002 193.121 95.7202 193.121 95.6002V82.6902Z" fill="white"/>
<path d="M198.17 92.7805C197.88 91.8605 197.8 91.1205 197.8 89.1405C197.8 87.1705 197.88 86.4205 198.17 85.5005C198.85 83.3505 200.69 82.2705 203.02 82.2705C205.35 82.2705 207.18 83.3405 207.87 85.5005C208.16 86.4205 208.24 87.1605 208.24 89.1405C208.24 91.1105 208.16 91.8605 207.87 92.7805C207.19 94.9305 205.35 96.0105 203.02 96.0105C200.69 96.0105 198.85 94.9305 198.17 92.7805ZM205.11 92.0005C205.27 91.5305 205.32 90.8905 205.32 89.1405C205.32 87.4005 205.26 86.7605 205.11 86.2805C204.82 85.3605 204.11 84.8205 203.02 84.8205C201.92 84.8205 201.22 85.3705 200.93 86.2805C200.77 86.7505 200.72 87.3905 200.72 89.1405C200.72 90.8805 200.78 91.5305 200.93 92.0005C201.22 92.9205 201.93 93.4605 203.02 93.4605C204.11 93.4605 204.81 92.9205 205.11 92.0005Z" fill="white"/>
<path fill-rule="evenodd" clip-rule="evenodd" d="M3.51018 47.09L20.4702 43.87L20.5202 106.58L100.07 110.11L100.27 48.7L120.19 50.58L120.18 43.81L90.1802 43.73L86.8302 93.63L27.1702 96.3L27.1502 36.96L0.680176 40.38L3.51018 47.09Z" fill="white"/>
<path fill-rule="evenodd" clip-rule="evenodd" d="M10.6104 35.9403V32.0003L55.5804 25.8803L55.7704 20.1103L42.6703 21.8603L42.4403 17.3103L78.1703 17.0703L78.1204 22.0803L65.6003 20.3303L64.7403 26.5103L110.57 37.3903L110.47 41.4603L60.1804 33.5603L10.6104 35.9403Z" fill="white"/>
<path d="M33.1104 53.4697H41.0804C44.9704 53.4697 47.7904 54.9297 47.7904 59.4897C47.7904 62.0497 46.5604 64.0097 44.2204 64.6797V64.7497C46.8304 65.1197 48.5103 67.1097 48.5103 70.2697C48.5103 73.9997 46.6904 77.2197 41.1504 77.2197H33.1104V53.4697ZM37.8804 63.2097H39.2404C41.8504 63.2097 43.0303 62.3097 43.0303 60.0897C43.0303 57.8297 41.9403 56.9897 39.6003 56.9897H37.8804V63.2097ZM37.8804 73.6897H39.7304C42.0104 73.6897 43.5604 72.8597 43.5604 70.0897C43.5604 67.3297 42.0004 66.5297 39.9304 66.5297H37.8804V73.6897Z" fill="white"/>
<path d="M54.5706 53.4697H60.4506L66.7006 77.2097H61.7506L60.6506 72.1897H54.3706L53.2806 77.2097H48.3306L54.5706 53.4697ZM55.2006 68.2697H59.8206L57.5406 57.5997H57.4706L55.2006 68.2697Z" fill="white"/>
<path fill-rule="evenodd" clip-rule="evenodd" d="M78.8302 65.5V65.44C81.5102 64.87 82.7602 62.75 82.7602 59.58C82.7602 55.53 80.3802 53.46 76.4802 53.46H67.7002V77.2H72.4502V67.17H75.0002C76.9202 67.17 77.7402 68.3 77.8102 70.17L77.8402 71.04V77.22H82.5802V71.01C82.4002 67.31 81.6602 65.88 78.8302 65.5ZM74.4402 63.85H72.4502V57H74.7002C76.8502 57 78.0002 58.1 78.0002 60.29C78.0102 62.85 76.7202 63.85 74.4402 63.85Z" fill="white"/>
<path d="M271.82 0V127.19" stroke="white" stroke-miterlimit="10"/>
<path d="M500.65 19.79V107.4" stroke="white" stroke-miterlimit="10"/>
<path d="M383.6 84.2604C383.42 84.0204 383.2 83.8404 382.93 83.7104C382.66 83.5904 382.39 83.5304 382.1 83.5304C381.77 83.5304 381.46 83.6004 381.18 83.7304C380.9 83.8704 380.66 84.0504 380.46 84.2804C380.26 84.5104 380.1 84.7704 379.99 85.0804C379.88 85.3804 379.82 85.7004 379.82 86.0204C379.82 86.3704 379.88 86.7004 379.99 87.0004C380.1 87.3004 380.26 87.5604 380.46 87.7904C380.66 88.0104 380.9 88.1904 381.18 88.3204C381.46 88.4504 381.77 88.5104 382.11 88.5104C382.48 88.5104 382.8 88.4404 383.09 88.2904C383.38 88.1504 383.63 87.9404 383.84 87.6704L384.37 88.1204C384.1 88.4804 383.77 88.7504 383.39 88.9204C383.01 89.0904 382.58 89.1704 382.1 89.1704C381.67 89.1704 381.27 89.0904 380.9 88.9304C380.53 88.7704 380.2 88.5504 379.93 88.2704C379.66 87.9904 379.44 87.6604 379.29 87.2804C379.13 86.9004 379.06 86.4804 379.06 86.0204C379.06 85.5804 379.13 85.1704 379.28 84.7804C379.43 84.4004 379.64 84.0604 379.91 83.7804C380.18 83.5004 380.5 83.2704 380.88 83.1104C381.25 82.9504 381.66 82.8604 382.11 82.8604C382.52 82.8604 382.91 82.9304 383.28 83.0804C383.66 83.2304 383.97 83.4704 384.22 83.8004L383.6 84.2604Z" fill="white"/>
<path d="M385.78 83.0205H389.55V83.6805H386.49V85.5605H389.34V86.2205H386.49V88.3505H389.7V89.0105H385.78V83.0205Z" fill="white"/>
<path d="M391.23 83.0205H392.76C393.05 83.0205 393.33 83.0405 393.62 83.0705C393.91 83.1005 394.16 83.1805 394.39 83.2905C394.62 83.4005 394.8 83.5705 394.94 83.7905C395.08 84.0105 395.15 84.3005 395.15 84.6705C395.15 85.1105 395.02 85.4705 394.75 85.7405C394.48 86.0105 394.12 86.1805 393.65 86.2605L395.35 89.0205H394.48L392.85 86.3305H391.94V89.0205H391.23V83.0205ZM391.94 85.6605H392.57C392.77 85.6605 392.97 85.6505 393.18 85.6405C393.39 85.6305 393.59 85.5905 393.76 85.5305C393.94 85.4705 394.08 85.3705 394.2 85.2405C394.32 85.1105 394.37 84.9205 394.37 84.6705C394.37 84.4605 394.33 84.2805 394.24 84.1505C394.16 84.0205 394.04 83.9205 393.91 83.8505C393.77 83.7805 393.62 83.7305 393.44 83.7105C393.27 83.6905 393.09 83.6805 392.92 83.6805H391.92V85.6605H391.94Z" fill="white"/>
<path d="M400.69 83.6805H398.71V89.0105H398V83.6805H396.02V83.0205H400.69V83.6805Z" fill="white"/>
<path d="M401.95 83.0205H402.66V89.0105H401.95V83.0205Z" fill="white"/>
<path d="M404.58 83.0205H408.3V83.6805H405.29V85.6605H408.08V86.3205H405.29V89.0105H404.58V83.0205Z" fill="white"/>
<path d="M409.7 83.0205H410.41V89.0105H409.7V83.0205Z" fill="white"/>
<path d="M412.32 83.0205H416.09V83.6805H413.03V85.5605H415.88V86.2205H413.03V88.3505H416.24V89.0105H412.32V83.0205Z" fill="white"/>
<path d="M417.65 83.0205H419.95C420.15 83.0205 420.36 83.0405 420.58 83.0905C420.8 83.1405 421.02 83.2105 421.24 83.3105C421.46 83.4105 421.67 83.5405 421.87 83.7005C422.07 83.8605 422.25 84.0505 422.4 84.2705C422.55 84.4905 422.67 84.7505 422.76 85.0405C422.85 85.3305 422.9 85.6605 422.9 86.0305C422.9 86.4005 422.85 86.7305 422.76 87.0205C422.67 87.3105 422.55 87.5705 422.4 87.7905C422.25 88.0105 422.07 88.2005 421.87 88.3605C421.67 88.5205 421.46 88.6505 421.24 88.7505C421.02 88.8505 420.8 88.9205 420.58 88.9705C420.36 89.0205 420.15 89.0405 419.95 89.0405H417.65V83.0205ZM418.36 88.3505H419.71C420.05 88.3505 420.37 88.3005 420.67 88.2105C420.96 88.1205 421.22 87.9805 421.43 87.7905C421.64 87.6005 421.81 87.3605 421.94 87.0705C422.06 86.7805 422.13 86.4205 422.13 86.0105C422.13 85.6005 422.07 85.2505 421.94 84.9505C421.82 84.6605 421.65 84.4205 421.43 84.2305C421.22 84.0405 420.96 83.9005 420.67 83.8105C420.38 83.7205 420.06 83.6705 419.71 83.6705H418.36V88.3505Z" fill="white"/>
<path d="M427.22 83.0205H428.28L430.31 87.7205H430.33L432.38 83.0205H433.41V89.0105H432.7V83.9805H432.68L430.53 89.0105H430.1L427.95 83.9805H427.93V89.0105H427.22V83.0205Z" fill="white"/>
<path d="M435.32 83.0205H439.09V83.6805H436.03V85.5605H438.88V86.2205H436.03V88.3505H439.24V89.0105H435.32V83.0205Z" fill="white"/>
<path d="M440.76 83.0205H441.82L443.85 87.7205H443.87L445.92 83.0205H446.95V89.0105H446.24V83.9805H446.22L444.07 89.0105H443.64L441.49 83.9805H441.47V89.0105H440.76V83.0205Z" fill="white"/>
<path d="M448.86 83.0205H450.69C450.94 83.0205 451.18 83.0505 451.42 83.1005C451.66 83.1505 451.87 83.2305 452.05 83.3505C452.24 83.4705 452.39 83.6205 452.5 83.8005C452.62 83.9905 452.67 84.2205 452.67 84.4905C452.67 84.8405 452.58 85.1305 452.39 85.3605C452.2 85.5905 451.95 85.7505 451.62 85.8505V85.8705C451.81 85.8905 451.99 85.9405 452.16 86.0205C452.33 86.1005 452.47 86.2105 452.59 86.3405C452.71 86.4705 452.81 86.6205 452.87 86.7905C452.94 86.9605 452.97 87.1505 452.97 87.3405C452.97 87.6705 452.9 87.9505 452.76 88.1605C452.62 88.3705 452.44 88.5505 452.22 88.6705C452 88.8005 451.75 88.8905 451.47 88.9405C451.19 88.9905 450.91 89.0205 450.64 89.0205H448.85V83.0205H448.86ZM449.58 85.5605H450.56C450.73 85.5605 450.89 85.5505 451.06 85.5305C451.22 85.5105 451.37 85.4605 451.5 85.3905C451.63 85.3205 451.73 85.2205 451.81 85.0905C451.89 84.9605 451.93 84.8005 451.93 84.5905C451.93 84.4005 451.89 84.2505 451.82 84.1405C451.75 84.0205 451.65 83.9305 451.53 83.8605C451.41 83.7905 451.27 83.7505 451.12 83.7205C450.96 83.6905 450.81 83.6805 450.65 83.6805H449.59V85.5605H449.58ZM449.58 88.3505H450.78C450.95 88.3505 451.13 88.3305 451.3 88.2905C451.47 88.2505 451.63 88.1905 451.77 88.1105C451.91 88.0305 452.02 87.9205 452.1 87.7905C452.18 87.6605 452.23 87.5005 452.23 87.3005C452.23 87.0905 452.19 86.9205 452.11 86.7805C452.03 86.6405 451.92 86.5305 451.79 86.4405C451.66 86.3605 451.51 86.3005 451.33 86.2605C451.16 86.2305 450.98 86.2105 450.8 86.2105H449.58V88.3505Z" fill="white"/>
<path d="M454.62 83.0205H458.39V83.6805H455.33V85.5605H458.18V86.2205H455.33V88.3505H458.54V89.0105H454.62V83.0205Z" fill="white"/>
<path d="M460.07 83.0205H461.6C461.89 83.0205 462.17 83.0405 462.46 83.0705C462.75 83.1005 463 83.1805 463.23 83.2905C463.46 83.4005 463.64 83.5705 463.78 83.7905C463.92 84.0105 463.99 84.3005 463.99 84.6705C463.99 85.1105 463.86 85.4705 463.59 85.7405C463.32 86.0105 462.96 86.1805 462.49 86.2605L464.19 89.0205H463.32L461.69 86.3305H460.78V89.0205H460.07V83.0205ZM460.78 85.6605H461.41C461.61 85.6605 461.81 85.6505 462.02 85.6405C462.23 85.6305 462.43 85.5905 462.6 85.5305C462.78 85.4705 462.92 85.3705 463.04 85.2405C463.16 85.1105 463.21 84.9205 463.21 84.6705C463.21 84.4605 463.17 84.2805 463.08 84.1505C463 84.0205 462.88 83.9205 462.75 83.8505C462.61 83.7805 462.46 83.7305 462.28 83.7105C462.11 83.6905 461.93 83.6805 461.76 83.6805H460.76V85.6605H460.78Z" fill="white"/>
<path d="M378.92 78.3604H468.79V78.1504H378.92" fill="white"/>
<path d="M378.81 37.8103H382.15V46.6803H383.07V37.8103H386.42V37.0303H378.81V37.8103Z" fill="white"/>
<path d="M388.41 42.611C388.42 42.271 388.47 41.951 388.58 41.661C388.68 41.371 388.83 41.111 389.01 40.901C389.19 40.691 389.42 40.521 389.68 40.401C389.94 40.281 390.25 40.221 390.59 40.221C390.93 40.221 391.22 40.271 391.44 40.381C391.67 40.491 391.85 40.641 391.98 40.831C392.11 41.021 392.21 41.241 392.26 41.501C392.31 41.761 392.34 42.031 392.34 42.331V46.681H393.19V42.191C393.19 41.781 393.15 41.401 393.07 41.071C392.99 40.741 392.85 40.451 392.65 40.231C392.45 40.001 392.19 39.821 391.86 39.701C391.53 39.571 391.13 39.511 390.64 39.511C390.15 39.511 389.69 39.641 389.28 39.901C388.87 40.161 388.58 40.501 388.42 40.921H388.39V37.041H387.54V46.691H388.39V42.611H388.41Z" fill="white"/>
<path d="M396.58 46.5802C396.98 46.7702 397.45 46.8702 398 46.8702C398.88 46.8702 399.56 46.6502 400.04 46.2202C400.52 45.7902 400.85 45.1702 401.03 44.3802H400.18C400.04 44.9202 399.8 45.3502 399.45 45.6802C399.1 46.0002 398.62 46.1702 398 46.1702C397.6 46.1702 397.25 46.0802 396.96 45.9102C396.67 45.7402 396.43 45.5202 396.25 45.2602C396.06 45.0002 395.92 44.7002 395.84 44.3702C395.75 44.0402 395.71 43.7202 395.71 43.4202H401.05C401.07 42.9302 401.02 42.4502 400.92 41.9802C400.81 41.5102 400.64 41.0902 400.39 40.7202C400.14 40.3502 399.82 40.0602 399.43 39.8302C399.04 39.6002 398.56 39.4902 398 39.4902C397.45 39.4902 396.98 39.6002 396.58 39.8102C396.18 40.0202 395.86 40.3002 395.6 40.6502C395.35 41.0002 395.16 41.3902 395.04 41.8302C394.92 42.2702 394.86 42.7202 394.86 43.1802C394.86 43.6802 394.92 44.1502 395.04 44.5902C395.16 45.0402 395.35 45.4302 395.6 45.7702C395.86 46.1202 396.18 46.3902 396.58 46.5802ZM395.93 41.7802C396.04 41.4802 396.19 41.2102 396.38 40.9802C396.57 40.7502 396.8 40.5702 397.07 40.4302C397.34 40.2902 397.65 40.2202 398 40.2202C398.34 40.2202 398.65 40.2902 398.92 40.4302C399.19 40.5702 399.42 40.7502 399.61 40.9802C399.8 41.2102 399.94 41.4702 400.05 41.7702C400.15 42.0702 400.21 42.3802 400.22 42.7002H395.73C395.75 42.3902 395.82 42.0902 395.93 41.7802Z" fill="white"/>
<path d="M408.13 43.0505H410.26C410.2 43.7305 409.98 44.2405 409.59 44.6005C409.21 44.9605 408.67 45.1305 407.97 45.1305C407.49 45.1305 407.09 45.0405 406.76 44.8505C406.43 44.6705 406.16 44.4205 405.95 44.1105C405.74 43.8005 405.59 43.4605 405.5 43.0805C405.41 42.7005 405.36 42.3005 405.36 41.9005C405.36 41.4805 405.41 41.0705 405.5 40.6705C405.59 40.2705 405.74 39.9205 405.95 39.6105C406.16 39.3005 406.43 39.0505 406.76 38.8705C407.09 38.6905 407.5 38.5905 407.97 38.5905C408.48 38.5905 408.92 38.7205 409.27 39.0005C409.63 39.2705 409.87 39.6805 410 40.2205H412.02C411.97 39.6705 411.82 39.1805 411.58 38.7605C411.34 38.3405 411.03 37.9805 410.66 37.6905C410.29 37.4005 409.87 37.1805 409.41 37.0305C408.95 36.8805 408.47 36.8105 407.98 36.8105C407.24 36.8105 406.58 36.9405 406 37.2005C405.41 37.4605 404.92 37.8205 404.51 38.2805C404.11 38.7405 403.8 39.2805 403.58 39.9005C403.36 40.5205 403.26 41.1905 403.26 41.9105C403.26 42.6105 403.37 43.2705 403.58 43.8805C403.8 44.4905 404.1 45.0205 404.51 45.4705C404.91 45.9205 405.41 46.2705 406 46.5305C406.59 46.7905 407.25 46.9105 407.98 46.9105C408.45 46.9105 408.91 46.8105 409.37 46.6205C409.83 46.4305 410.24 46.0905 410.62 45.6005L410.84 46.7005H412.18V41.4805H408.14V43.0505H408.13Z" fill="white"/>
<path d="M415.66 37.0303H413.75V46.6903H415.66V37.0303Z" fill="white"/>
<path d="M418.26 45.8705C418.57 46.1905 418.95 46.4405 419.39 46.6105C419.83 46.7805 420.32 46.8705 420.87 46.8705C421.42 46.8705 421.91 46.7805 422.36 46.6105C422.8 46.4405 423.18 46.1905 423.5 45.8705C423.81 45.5505 424.06 45.1605 424.23 44.7105C424.4 44.2605 424.49 43.7505 424.49 43.2005C424.49 42.6405 424.4 42.1305 424.23 41.6805C424.06 41.2205 423.82 40.8405 423.5 40.5205C423.19 40.2005 422.81 39.9505 422.36 39.7805C421.92 39.6005 421.42 39.5205 420.87 39.5205C420.32 39.5205 419.83 39.6105 419.39 39.7805C418.95 39.9605 418.57 40.2005 418.26 40.5205C417.95 40.8405 417.7 41.2305 417.53 41.6805C417.36 42.1405 417.27 42.6405 417.27 43.2005C417.27 43.7605 417.36 44.2605 417.53 44.7105C417.7 45.1605 417.94 45.5505 418.26 45.8705ZM419.27 42.3705C419.32 42.1005 419.42 41.8605 419.55 41.6505C419.68 41.4405 419.85 41.2705 420.07 41.1405C420.29 41.0105 420.55 40.9405 420.88 40.9405C421.2 40.9405 421.47 41.0105 421.69 41.1405C421.91 41.2705 422.08 41.4405 422.21 41.6505C422.34 41.8605 422.43 42.1005 422.49 42.3705C422.54 42.6405 422.57 42.9205 422.57 43.2005C422.57 43.4805 422.54 43.7505 422.49 44.0205C422.44 44.2905 422.34 44.5305 422.21 44.7405C422.08 44.9505 421.91 45.1205 421.69 45.2505C421.47 45.3805 421.2 45.4405 420.88 45.4405C420.56 45.4405 420.29 45.3805 420.07 45.2505C419.85 45.1205 419.68 44.9605 419.55 44.7405C419.42 44.5305 419.33 44.2905 419.27 44.0205C419.22 43.7505 419.19 43.4805 419.19 43.2005C419.19 42.9205 419.21 42.6405 419.27 42.3705Z" fill="white"/>
<path d="M427.39 45.7907H427.42C427.63 46.1807 427.93 46.4507 428.34 46.6107C428.74 46.7707 429.2 46.8507 429.71 46.8507C430.06 46.8507 430.41 46.7807 430.75 46.6307C431.09 46.4907 431.4 46.2607 431.67 45.9707C431.94 45.6707 432.17 45.2907 432.34 44.8307C432.51 44.3707 432.6 43.8107 432.6 43.1707C432.6 42.5307 432.51 41.9807 432.34 41.5107C432.17 41.0507 431.95 40.6707 431.67 40.3707C431.4 40.0707 431.09 39.8507 430.75 39.7107C430.41 39.5707 430.06 39.4907 429.71 39.4907C429.28 39.4907 428.86 39.5707 428.47 39.7407C428.07 39.9107 427.75 40.1707 427.52 40.5307H427.49V37.0107H425.58V46.6607H427.4V45.7907H427.39ZM427.51 42.3407C427.57 42.0707 427.67 41.8307 427.81 41.6207C427.94 41.4107 428.11 41.2507 428.32 41.1307C428.53 41.0107 428.77 40.9507 429.05 40.9507C429.34 40.9507 429.58 41.0107 429.78 41.1307C429.98 41.2507 430.15 41.4207 430.28 41.6207C430.41 41.8307 430.51 42.0707 430.58 42.3407C430.64 42.6107 430.67 42.8907 430.67 43.1907C430.67 43.4807 430.64 43.7607 430.58 44.0307C430.52 44.3007 430.42 44.5407 430.28 44.7507C430.15 44.9607 429.98 45.1207 429.78 45.2407C429.58 45.3607 429.33 45.4207 429.05 45.4207C428.77 45.4207 428.53 45.3607 428.32 45.2407C428.11 45.1207 427.94 44.9507 427.81 44.7507C427.68 44.5407 427.58 44.3007 427.51 44.0307C427.45 43.7607 427.42 43.4807 427.42 43.1907C427.42 42.9007 427.45 42.6107 427.51 42.3407Z" fill="white"/>
<path d="M434.55 46.361C434.77 46.531 435.02 46.661 435.3 46.741C435.59 46.821 435.9 46.861 436.23 46.861C436.66 46.861 437.08 46.801 437.49 46.671C437.9 46.541 438.26 46.321 438.57 46.011C438.58 46.131 438.6 46.241 438.62 46.351C438.64 46.461 438.67 46.571 438.71 46.681H440.65C440.56 46.541 440.5 46.321 440.46 46.031C440.42 45.741 440.41 45.441 440.41 45.121V41.481C440.41 41.061 440.32 40.721 440.13 40.461C439.94 40.201 439.7 40.001 439.4 39.861C439.1 39.721 438.78 39.621 438.42 39.571C438.06 39.521 437.71 39.501 437.36 39.501C436.97 39.501 436.59 39.541 436.21 39.621C435.83 39.701 435.49 39.821 435.18 40.011C434.88 40.191 434.62 40.431 434.43 40.731C434.23 41.031 434.12 41.401 434.09 41.851H436C436.04 41.471 436.16 41.201 436.38 41.041C436.59 40.881 436.89 40.801 437.27 40.801C437.44 40.801 437.6 40.811 437.75 40.831C437.9 40.851 438.03 40.901 438.14 40.971C438.25 41.041 438.34 41.131 438.41 41.251C438.48 41.371 438.51 41.541 438.51 41.741C438.52 41.941 438.46 42.091 438.34 42.191C438.21 42.291 438.04 42.371 437.83 42.431C437.61 42.481 437.37 42.521 437.09 42.551C436.81 42.581 436.53 42.611 436.24 42.661C435.95 42.711 435.67 42.771 435.39 42.841C435.11 42.921 434.86 43.031 434.64 43.191C434.42 43.341 434.24 43.551 434.1 43.811C433.96 44.071 433.89 44.391 433.89 44.791C433.89 45.151 433.95 45.461 434.07 45.721C434.16 45.971 434.33 46.191 434.55 46.361ZM435.86 44.251C435.92 44.131 436.01 44.041 436.11 43.961C436.21 43.881 436.33 43.821 436.47 43.781C436.61 43.731 436.75 43.701 436.89 43.671C437.04 43.641 437.19 43.621 437.35 43.601C437.5 43.581 437.65 43.561 437.79 43.531C437.93 43.501 438.06 43.471 438.18 43.431C438.3 43.391 438.4 43.331 438.48 43.261V43.981C438.48 44.091 438.47 44.231 438.45 44.411C438.43 44.591 438.37 44.771 438.27 44.941C438.17 45.121 438.02 45.271 437.81 45.391C437.6 45.511 437.31 45.581 436.94 45.581C436.79 45.581 436.64 45.571 436.5 45.541C436.36 45.511 436.23 45.471 436.12 45.401C436.01 45.331 435.93 45.241 435.86 45.121C435.8 45.001 435.77 44.861 435.77 44.691C435.77 44.521 435.8 44.371 435.86 44.251Z" fill="white"/>
<path d="M444.2 37.0303H442.29V46.6903H444.2V37.0303Z" fill="white"/>
<path d="M378.91 60.161H381.19V55.881H385.54V54.101H381.19V51.711H386.2V49.791H378.91V60.161Z" fill="white"/>
<path d="M393.43 53.5302C393.09 53.1902 392.68 52.9202 392.2 52.7302C391.72 52.5402 391.19 52.4502 390.59 52.4502C390 52.4502 389.47 52.5402 388.99 52.7302C388.52 52.9202 388.11 53.1902 387.77 53.5302C387.43 53.8702 387.17 54.2902 386.99 54.7802C386.81 55.2702 386.71 55.8102 386.71 56.4102C386.71 57.0102 386.8 57.5502 386.99 58.0402C387.17 58.5202 387.44 58.9402 387.77 59.2802C388.11 59.6202 388.52 59.8902 388.99 60.0702C389.46 60.2502 390 60.3502 390.59 60.3502C391.18 60.3502 391.72 60.2602 392.2 60.0702C392.68 59.8902 393.09 59.6202 393.43 59.2802C393.77 58.9402 394.03 58.5202 394.21 58.0402C394.39 57.5602 394.49 57.0102 394.49 56.4102C394.49 55.8102 394.4 55.2602 394.21 54.7802C394.03 54.2902 393.76 53.8702 393.43 53.5302ZM392.34 57.2902C392.28 57.5802 392.18 57.8302 392.04 58.0602C391.9 58.2902 391.71 58.4702 391.47 58.6002C391.23 58.7402 390.94 58.8002 390.59 58.8002C390.24 58.8002 389.95 58.7302 389.72 58.6002C389.49 58.4602 389.3 58.2802 389.16 58.0602C389.02 57.8302 388.92 57.5802 388.86 57.2902C388.8 57.0002 388.77 56.7102 388.77 56.4102C388.77 56.1102 388.8 55.8102 388.86 55.5202C388.92 55.2302 389.02 54.9702 389.16 54.7502C389.3 54.5302 389.49 54.3502 389.72 54.2102C389.95 54.0702 390.24 54.0002 390.59 54.0002C390.94 54.0002 391.23 54.0702 391.47 54.2102C391.71 54.3502 391.9 54.5302 392.04 54.7502C392.18 54.9702 392.28 55.2302 392.34 55.5202C392.4 55.8102 392.43 56.1102 392.43 56.4102C392.42 56.7102 392.39 57.0102 392.34 57.2902Z" fill="white"/>
<path d="M401.94 53.5302C401.6 53.1902 401.19 52.9202 400.71 52.7302C400.23 52.5402 399.69 52.4502 399.1 52.4502C398.51 52.4502 397.98 52.5402 397.5 52.7302C397.03 52.9202 396.62 53.1902 396.28 53.5302C395.94 53.8702 395.68 54.2902 395.49 54.7802C395.31 55.2702 395.21 55.8102 395.21 56.4102C395.21 57.0102 395.3 57.5502 395.49 58.0402C395.67 58.5202 395.94 58.9402 396.28 59.2802C396.62 59.6202 397.03 59.8902 397.5 60.0702C397.97 60.2502 398.51 60.3502 399.1 60.3502C399.69 60.3502 400.23 60.2602 400.71 60.0702C401.19 59.8902 401.6 59.6202 401.94 59.2802C402.28 58.9402 402.54 58.5202 402.72 58.0402C402.9 57.5602 403 57.0102 403 56.4102C403 55.8102 402.91 55.2602 402.72 54.7802C402.54 54.2902 402.28 53.8702 401.94 53.5302ZM400.85 57.2902C400.79 57.5802 400.69 57.8302 400.55 58.0602C400.41 58.2902 400.22 58.4702 399.98 58.6002C399.74 58.7402 399.45 58.8002 399.1 58.8002C398.75 58.8002 398.46 58.7302 398.23 58.6002C398 58.4602 397.81 58.2802 397.67 58.0602C397.53 57.8302 397.43 57.5802 397.37 57.2902C397.31 57.0002 397.28 56.7102 397.28 56.4102C397.28 56.1102 397.31 55.8102 397.37 55.5202C397.43 55.2302 397.53 54.9702 397.67 54.7502C397.81 54.5302 398 54.3502 398.23 54.2102C398.46 54.0702 398.75 54.0002 399.1 54.0002C399.45 54.0002 399.74 54.0702 399.98 54.2102C400.22 54.3502 400.41 54.5302 400.55 54.7502C400.69 54.9702 400.79 55.2302 400.85 55.5202C400.91 55.8102 400.94 56.1102 400.94 56.4102C400.94 56.7102 400.91 57.0102 400.85 57.2902Z" fill="white"/>
<path d="M409.67 53.561H409.64C409.41 53.191 409.09 52.911 408.69 52.721C408.29 52.531 407.86 52.441 407.42 52.441C406.87 52.441 406.38 52.551 405.97 52.771C405.55 52.991 405.21 53.281 404.93 53.631C404.65 53.991 404.45 54.401 404.31 54.871C404.17 55.341 404.1 55.831 404.1 56.331C404.1 56.851 404.17 57.361 404.31 57.841C404.45 58.321 404.66 58.751 404.93 59.131C405.21 59.501 405.56 59.801 405.98 60.021C406.41 60.241 406.9 60.351 407.46 60.351C407.95 60.351 408.4 60.261 408.79 60.081C409.18 59.901 409.5 59.611 409.74 59.201H409.77V60.161H411.73V49.791H409.67V53.561ZM409.66 57.281C409.6 57.571 409.51 57.831 409.37 58.061C409.23 58.291 409.05 58.471 408.82 58.611C408.59 58.751 408.31 58.811 407.97 58.811C407.65 58.811 407.38 58.741 407.15 58.601C406.92 58.461 406.73 58.281 406.58 58.051C406.43 57.821 406.32 57.561 406.25 57.271C406.18 56.981 406.15 56.691 406.15 56.401C406.15 56.091 406.18 55.791 406.24 55.511C406.3 55.221 406.4 54.971 406.55 54.751C406.69 54.531 406.88 54.351 407.11 54.211C407.34 54.071 407.63 54.011 407.97 54.011C408.31 54.011 408.59 54.081 408.81 54.211C409.03 54.351 409.21 54.521 409.36 54.741C409.5 54.961 409.6 55.211 409.66 55.501C409.72 55.791 409.75 56.081 409.75 56.391C409.74 56.691 409.72 56.991 409.66 57.281Z" fill="white"/>
<path d="M420.53 54.5203C421 54.3003 421.35 54.0103 421.58 53.6603C421.82 53.3103 421.94 52.8803 421.94 52.3503C421.94 51.8703 421.86 51.4603 421.7 51.1303C421.54 50.8003 421.31 50.5403 421.02 50.3403C420.73 50.1403 420.38 50.0003 419.97 49.9103C419.56 49.8203 419.11 49.7803 418.62 49.7803H413.74V60.1603H418.77C419.24 60.1603 419.69 60.1003 420.13 59.9903C420.57 59.8703 420.96 59.6903 421.31 59.4503C421.65 59.2103 421.93 58.9003 422.13 58.5103C422.33 58.1303 422.44 57.6703 422.44 57.1503C422.44 56.5003 422.28 55.9503 421.97 55.4903C421.64 55.0303 421.17 54.7103 420.53 54.5203ZM416.02 51.5603H418.16C418.36 51.5603 418.56 51.5803 418.75 51.6103C418.94 51.6403 419.11 51.7003 419.25 51.7903C419.4 51.8803 419.51 52.0003 419.6 52.1503C419.69 52.3003 419.73 52.5003 419.73 52.7503C419.73 53.1903 419.6 53.5003 419.34 53.6903C419.08 53.8803 418.74 53.9803 418.34 53.9803H416.03V51.5603H416.02ZM420.01 57.6903C419.92 57.8603 419.79 58.0003 419.64 58.1003C419.48 58.2003 419.31 58.2703 419.1 58.3203C418.89 58.3703 418.68 58.3903 418.46 58.3903H416.02V55.5403H418.51C419 55.5403 419.4 55.6503 419.7 55.8803C420 56.1103 420.15 56.4903 420.15 57.0203C420.15 57.3003 420.1 57.5203 420.01 57.6903Z" fill="white"/>
<path d="M423.88 53.7504C423.67 54.0704 423.55 54.4704 423.52 54.9604H425.58C425.62 54.5504 425.75 54.2604 425.99 54.0904C426.22 53.9204 426.54 53.8304 426.95 53.8304C427.13 53.8304 427.31 53.8404 427.47 53.8704C427.63 53.8904 427.77 53.9404 427.89 54.0204C428.01 54.0904 428.11 54.1904 428.18 54.3304C428.25 54.4604 428.29 54.6404 428.29 54.8604C428.3 55.0704 428.24 55.2404 428.1 55.3504C427.96 55.4604 427.78 55.5504 427.55 55.6004C427.32 55.6604 427.05 55.7004 426.75 55.7304C426.45 55.7604 426.14 55.8004 425.83 55.8504C425.52 55.9004 425.21 55.9604 424.91 56.0504C424.6 56.1304 424.33 56.2604 424.1 56.4204C423.86 56.5804 423.67 56.8004 423.52 57.0804C423.37 57.3604 423.29 57.7104 423.29 58.1304C423.29 58.5204 423.36 58.8504 423.49 59.1304C423.62 59.4104 423.8 59.6404 424.04 59.8304C424.27 60.0104 424.54 60.1504 424.85 60.2404C425.16 60.3304 425.49 60.3704 425.85 60.3704C426.32 60.3704 426.77 60.3004 427.22 60.1704C427.67 60.0304 428.05 59.8004 428.38 59.4604C428.39 59.5904 428.41 59.7104 428.43 59.8304C428.45 59.9504 428.49 60.0704 428.53 60.1904H430.62C430.52 60.0304 430.46 59.8004 430.42 59.4904C430.38 59.1804 430.36 58.8604 430.36 58.5204V54.5804C430.36 54.1204 430.26 53.7604 430.05 53.4804C429.85 53.2004 429.59 52.9904 429.27 52.8304C428.95 52.6804 428.6 52.5704 428.21 52.5204C427.82 52.4704 427.44 52.4404 427.06 52.4404C426.64 52.4404 426.23 52.4804 425.82 52.5604C425.41 52.6404 425.04 52.7804 424.71 52.9704C424.37 53.1804 424.1 53.4304 423.88 53.7504ZM428.29 57.2604C428.29 57.3804 428.28 57.5304 428.25 57.7204C428.23 57.9104 428.16 58.1004 428.05 58.2904C427.94 58.4804 427.78 58.6404 427.56 58.7804C427.34 58.9204 427.02 58.9804 426.62 58.9804C426.45 58.9804 426.3 58.9704 426.14 58.9404C425.98 58.9104 425.85 58.8604 425.73 58.7904C425.61 58.7204 425.52 58.6204 425.45 58.4904C425.38 58.3604 425.35 58.2104 425.35 58.0204C425.35 57.8304 425.38 57.6704 425.45 57.5404C425.52 57.4104 425.61 57.3104 425.72 57.2304C425.83 57.1504 425.96 57.0804 426.11 57.0304C426.26 56.9804 426.41 56.9404 426.57 56.9104C426.73 56.8804 426.9 56.8604 427.06 56.8404C427.22 56.8204 427.38 56.8004 427.53 56.7704C427.68 56.7404 427.82 56.7004 427.95 56.6604C428.08 56.6204 428.19 56.5604 428.28 56.4804V57.2604H428.29Z" fill="white"/>
<path d="M435.68 54.0704C436.17 54.0704 436.52 54.2204 436.71 54.5304C436.9 54.8404 437 55.3004 437 55.9204V60.1604H439.06V55.5404C439.06 55.0704 439.02 54.6504 438.94 54.2704C438.86 53.8904 438.71 53.5604 438.51 53.3004C438.31 53.0304 438.03 52.8304 437.67 52.6704C437.32 52.5204 436.86 52.4404 436.31 52.4404C435.87 52.4404 435.45 52.5404 435.03 52.7404C434.61 52.9404 434.27 53.2604 434.01 53.6904H433.97V52.6404H432.01V60.1504H434.07V56.2104C434.07 55.4504 434.2 54.9004 434.45 54.5604C434.72 54.2404 435.12 54.0704 435.68 54.0704Z" fill="white"/>
<path d="M442.89 57.581L443.69 56.811L445.76 60.161H448.25L445.1 55.411L447.93 52.651H445.49L442.89 55.351V49.791H440.83V60.161H442.89V57.581Z" fill="white"/>
<path d="M451.17 52.6504H449.11V60.1604H451.17V52.6504Z" fill="white"/>
<path d="M451.17 49.791H449.11V51.491H451.17V49.791Z" fill="white"/>
<path d="M459.92 60.1602V55.5402C459.92 55.0702 459.88 54.6502 459.8 54.2702C459.72 53.8902 459.57 53.5602 459.37 53.3002C459.17 53.0302 458.89 52.8302 458.53 52.6802C458.18 52.5302 457.72 52.4502 457.17 52.4502C456.73 52.4502 456.31 52.5502 455.89 52.7502C455.47 52.9502 455.13 53.2702 454.87 53.7002H454.83V52.6502H452.87V60.1602H454.93V56.2202C454.93 55.4502 455.06 54.9002 455.31 54.5702C455.56 54.2402 455.97 54.0702 456.53 54.0702C457.02 54.0702 457.37 54.2202 457.56 54.5302C457.75 54.8402 457.85 55.3002 457.85 55.9202V60.1602H459.92Z" fill="white"/>
<path d="M466.83 52.6504V53.6504H466.8C466.55 53.2104 466.24 52.9004 465.86 52.7204C465.49 52.5404 465.05 52.4404 464.56 52.4404C464.04 52.4404 463.57 52.5404 463.17 52.7504C462.77 52.9504 462.43 53.2304 462.16 53.5704C461.89 53.9104 461.68 54.3104 461.54 54.7604C461.4 55.2104 461.33 55.6804 461.33 56.1604C461.33 56.6704 461.39 57.1604 461.51 57.6204C461.63 58.0804 461.82 58.4804 462.08 58.8304C462.34 59.1704 462.68 59.4504 463.08 59.6404C463.49 59.8404 463.97 59.9404 464.53 59.9404C464.99 59.9404 465.42 59.8504 465.83 59.6604C466.24 59.4704 466.56 59.1804 466.78 58.7804H466.81V59.7704C466.82 60.3004 466.69 60.7404 466.42 61.0904C466.15 61.4404 465.73 61.6104 465.15 61.6104C464.78 61.6104 464.46 61.5304 464.18 61.3804C463.9 61.2304 463.71 60.9604 463.61 60.5704H461.56C461.59 61.0004 461.71 61.3604 461.92 61.6704C462.13 61.9804 462.39 62.2204 462.71 62.4204C463.02 62.6104 463.37 62.7604 463.76 62.8504C464.14 62.9404 464.52 62.9904 464.89 62.9904C465.75 62.9904 466.44 62.8704 466.95 62.6404C467.46 62.4104 467.86 62.1204 468.13 61.7904C468.4 61.4604 468.58 61.0904 468.66 60.7104C468.74 60.3204 468.78 59.9804 468.78 59.6804V52.6504H466.83ZM466.72 57.0904C466.65 57.3404 466.54 57.5604 466.39 57.7504C466.24 57.9404 466.06 58.1004 465.84 58.2204C465.62 58.3404 465.36 58.3904 465.07 58.3904C464.75 58.3904 464.48 58.3204 464.27 58.1904C464.06 58.0504 463.89 57.8804 463.75 57.6704C463.62 57.4604 463.53 57.2204 463.47 56.9504C463.42 56.6804 463.39 56.4104 463.39 56.1404C463.39 55.8604 463.42 55.5904 463.48 55.3304C463.54 55.0704 463.64 54.8504 463.79 54.6504C463.93 54.4504 464.1 54.2904 464.31 54.1804C464.52 54.0604 464.77 54.0104 465.06 54.0104C465.4 54.0104 465.68 54.0704 465.9 54.2004C466.12 54.3304 466.3 54.5004 466.44 54.7104C466.58 54.9204 466.67 55.1704 466.73 55.4404C466.79 55.7204 466.82 56.0104 466.82 56.3204C466.83 56.5804 466.79 56.8404 466.72 57.0904Z" fill="white"/>
<path d="M385.82 71.1807H385.8L380.2 63.0107H379.18V72.6707H380.09V64.5007H380.12L385.71 72.6707H386.74V63.0107H385.82V71.1807Z" fill="white"/>
<path d="M394.63 67.9705C394.52 67.5005 394.34 67.0805 394.1 66.7105C393.85 66.3405 393.53 66.0505 393.14 65.8205C392.75 65.5905 392.27 65.4805 391.71 65.4805C391.16 65.4805 390.69 65.5905 390.29 65.8005C389.89 66.0105 389.57 66.2905 389.31 66.6405C389.06 66.9905 388.87 67.3805 388.75 67.8205C388.63 68.2605 388.57 68.7105 388.57 69.1705C388.57 69.6705 388.63 70.1405 388.75 70.5805C388.87 71.0305 389.06 71.4205 389.31 71.7605C389.56 72.1005 389.89 72.3605 390.29 72.5605C390.69 72.7605 391.16 72.8505 391.71 72.8505C392.59 72.8505 393.27 72.6305 393.75 72.2005C394.23 71.7705 394.56 71.1505 394.74 70.3605H393.89C393.75 70.9005 393.51 71.3305 393.16 71.6605C392.81 71.9805 392.33 72.1505 391.71 72.1505C391.31 72.1505 390.96 72.0605 390.67 71.8905C390.38 71.7205 390.14 71.5005 389.96 71.2405C389.77 70.9805 389.63 70.6805 389.55 70.3505C389.46 70.0205 389.42 69.7005 389.42 69.4005H394.76C394.79 68.9205 394.74 68.4405 394.63 67.9705ZM389.43 68.6905C389.47 68.3705 389.54 68.0705 389.65 67.7605C389.76 67.4605 389.91 67.1905 390.1 66.9605C390.29 66.7305 390.52 66.5505 390.79 66.4105C391.06 66.2705 391.37 66.2005 391.72 66.2005C392.06 66.2005 392.37 66.2705 392.64 66.4105C392.91 66.5505 393.14 66.7305 393.33 66.9605C393.52 67.1905 393.66 67.4505 393.77 67.7505C393.87 68.0505 393.93 68.3605 393.94 68.6805H389.43V68.6905Z" fill="white"/>
<path d="M397.69 63.5908H396.84V65.6908H395.63V66.4108H396.84V71.1808C396.83 71.7808 396.94 72.1808 397.16 72.4008C397.38 72.6208 397.78 72.7308 398.34 72.7308C398.47 72.7308 398.59 72.7308 398.72 72.7208C398.85 72.7108 398.97 72.7108 399.1 72.7108V71.9908C398.86 72.0208 398.62 72.0308 398.37 72.0308C398.06 72.0108 397.87 71.9208 397.8 71.7708C397.72 71.6108 397.69 71.3908 397.69 71.1108V66.4008H399.1V65.6808H397.69V63.5908Z" fill="white"/>
<path d="M407.13 71.6704H407.11L405.41 65.6904H404.46L402.76 71.6704H402.73L400.96 65.6904H400.06L402.29 72.6704H403.22L404.91 66.8004H404.94L406.65 72.6704H407.58L409.81 65.6904H408.91L407.13 71.6704Z" fill="white"/>
<path d="M416.52 66.5805C416.24 66.2505 415.9 65.9805 415.49 65.7805C415.08 65.5805 414.61 65.4805 414.08 65.4805C413.55 65.4805 413.08 65.5805 412.67 65.7805C412.26 65.9805 411.92 66.2405 411.64 66.5805C411.36 66.9105 411.15 67.3005 411.01 67.7505C410.87 68.2005 410.79 68.6705 410.79 69.1805C410.79 69.6805 410.86 70.1605 411.01 70.6105C411.15 71.0605 411.36 71.4505 411.64 71.7805C411.92 72.1105 412.26 72.3805 412.67 72.5705C413.08 72.7605 413.55 72.8605 414.08 72.8605C414.61 72.8605 415.08 72.7605 415.49 72.5705C415.9 72.3805 416.24 72.1105 416.52 71.7805C416.8 71.4505 417.01 71.0605 417.15 70.6105C417.29 70.1605 417.37 69.6905 417.37 69.1805C417.37 68.6805 417.3 68.2005 417.15 67.7505C417.01 67.3105 416.8 66.9205 416.52 66.5805ZM416.37 70.2705C416.27 70.6305 416.11 70.9405 415.91 71.2205C415.71 71.5005 415.45 71.7205 415.15 71.9005C414.84 72.0705 414.49 72.1605 414.09 72.1605C413.69 72.1605 413.33 72.0705 413.03 71.9005C412.73 71.7305 412.47 71.5005 412.27 71.2205C412.07 70.9405 411.92 70.6205 411.81 70.2705C411.71 69.9105 411.65 69.5505 411.65 69.1805C411.65 68.8105 411.7 68.4505 411.81 68.0905C411.91 67.7305 412.07 67.4205 412.27 67.1405C412.47 66.8605 412.73 66.6405 413.03 66.4605C413.33 66.2905 413.69 66.2005 414.09 66.2005C414.49 66.2005 414.85 66.2905 415.15 66.4605C415.45 66.6305 415.71 66.8605 415.91 67.1405C416.11 67.4205 416.26 67.7405 416.37 68.0905C416.47 68.4505 416.52 68.8105 416.52 69.1805C416.52 69.5505 416.47 69.9105 416.37 70.2705Z" fill="white"/>
<path d="M419.87 67.3306H419.84V65.6906H419.06V72.6707H419.91V68.9506C419.91 68.5806 419.97 68.2406 420.1 67.9306C420.23 67.6206 420.4 67.3506 420.63 67.1306C420.86 66.9006 421.13 66.7306 421.44 66.6106C421.75 66.4906 422.1 66.4406 422.49 66.4506V65.6007C421.86 65.5707 421.32 65.7106 420.87 66.0206C420.42 66.3206 420.09 66.7606 419.87 67.3306Z" fill="white"/>
<path d="M429.56 65.6907H428.43L424.58 69.0707V63.0107H423.74V72.6707H424.58V70.0207L425.96 68.8707L428.7 72.6707H429.76L426.6 68.2707L429.56 65.6907Z" fill="white"/>
<path d="M432.68 65.1709C432.54 65.0309 432.37 64.9109 432.18 64.8309C431.99 64.7509 431.78 64.7109 431.55 64.7109C431.33 64.7109 431.12 64.7509 430.92 64.8309C430.73 64.9109 430.56 65.0209 430.42 65.1709C430.28 65.3109 430.17 65.4809 430.09 65.6809C430.01 65.8709 429.97 66.0809 429.97 66.3109C429.97 66.5409 430.01 66.7409 430.09 66.9409C430.17 67.1309 430.28 67.3009 430.42 67.4409C430.56 67.5809 430.73 67.6909 430.92 67.7809C431.11 67.8609 431.32 67.9009 431.55 67.9009C431.77 67.9009 431.98 67.8609 432.18 67.7809C432.37 67.7009 432.54 67.5909 432.68 67.4409C432.82 67.3009 432.93 67.1309 433.01 66.9409C433.09 66.7509 433.13 66.5409 433.13 66.3109C433.13 66.0909 433.09 65.8809 433.01 65.6809C432.93 65.4809 432.82 65.3109 432.68 65.1709ZM432.79 66.8409C432.72 67.0109 432.63 67.1509 432.51 67.2709C432.39 67.3909 432.25 67.4909 432.09 67.5609C431.93 67.6309 431.75 67.6709 431.56 67.6709C431.37 67.6709 431.19 67.6309 431.03 67.5609C430.87 67.4909 430.73 67.3909 430.61 67.2709C430.49 67.1509 430.4 67.0009 430.33 66.8409C430.26 66.6709 430.23 66.5009 430.23 66.3009C430.23 66.1109 430.26 65.9309 430.33 65.7609C430.4 65.5909 430.49 65.4509 430.61 65.3309C430.73 65.2109 430.87 65.1109 431.03 65.0409C431.19 64.9709 431.37 64.9309 431.56 64.9309C431.75 64.9309 431.93 64.9709 432.09 65.0409C432.25 65.1109 432.39 65.2109 432.51 65.3309C432.63 65.4509 432.72 65.6009 432.79 65.7609C432.86 65.9309 432.89 66.1009 432.89 66.3009C432.89 66.5009 432.85 66.6709 432.79 66.8409Z" fill="white"/>
<path d="M431.99 66.3509C432.05 66.3309 432.09 66.2909 432.14 66.2509C432.18 66.2109 432.22 66.1609 432.24 66.1009C432.26 66.0409 432.28 65.9709 432.28 65.8909C432.28 65.7209 432.23 65.6009 432.14 65.5109C432.04 65.4209 431.89 65.3809 431.69 65.3809H430.99V67.2209H431.22V66.4009H431.6L432.12 67.2209H432.38L431.83 66.4009C431.88 66.4009 431.94 66.3809 431.99 66.3509ZM431.5 66.2109H431.2V65.5809H431.61C431.67 65.5809 431.72 65.5809 431.77 65.5909C431.82 65.6009 431.87 65.6209 431.91 65.6409C431.95 65.6609 431.98 65.7009 432.01 65.7409C432.03 65.7809 432.05 65.8309 432.05 65.9009C432.05 65.9809 432.03 66.0409 432 66.0809C431.97 66.1209 431.93 66.1609 431.88 66.1809C431.83 66.2009 431.77 66.2109 431.7 66.2209C431.63 66.2109 431.57 66.2109 431.5 66.2109Z" fill="white"/>
<path d="M326.28 40.1104C326.28 40.1104 353.56 41.2903 370.88 66.1903C370.88 66.1903 358.47 41.8704 328.13 38.6104" fill="white"/>
<path d="M318.1 61.291C318.08 61.291 318.06 61.291 318.03 61.291L318.08 61.361C318.09 61.341 318.1 61.311 318.1 61.291Z" fill="white"/>
<path d="M322.95 50.3203C322.94 50.3203 322.93 50.3203 322.92 50.3203L322.93 50.3603C322.94 50.3403 322.95 50.3303 322.95 50.3203Z" fill="white"/>
<path d="M362.55 69.1709C362.58 69.0709 362.6 68.9709 362.63 68.8809L362.54 69.1609L362.55 69.1709Z" fill="white"/>
<path d="M351.7 60.0008C351.72 59.9508 351.74 59.8908 351.76 59.8408L351.7 60.0008C351.69 60.0008 351.69 60.0008 351.7 60.0008Z" fill="white"/>
<path d="M313.94 71.3303C313.94 71.3003 313.94 71.2903 313.93 71.2803C313.93 71.3003 313.93 71.3103 313.94 71.3303Z" fill="white"/>
<path d="M328.56 74.7109L328.5 74.8809C328.47 74.9709 328.44 75.0609 328.41 75.1509L328.57 74.7109H328.56Z" fill="white"/>
<path d="M332.85 64.8809C332.8 64.9809 332.75 65.0909 332.7 65.1909L332.88 64.8809H332.85Z" fill="white"/>
<path d="M322.94 50.3804L322.93 50.3604C322.92 50.3704 322.92 50.3804 322.91 50.3904L322.94 50.3804Z" fill="white"/>
<path d="M322.94 50.3804L322.93 50.3604C322.92 50.3704 322.92 50.3804 322.91 50.3904L322.94 50.3804Z" fill="white"/>
<path d="M317.07 51.5109C317.1 51.4809 317.13 51.4509 317.18 51.3909C317.21 51.3609 317.31 51.2709 317.37 51.2209L317.48 51.1309C317.8 50.9209 318.15 50.7509 318.51 50.6309C319.19 50.4009 320.05 50.2709 321.13 50.2409C321.66 50.2309 322.24 50.2509 322.92 50.3009L322.24 47.6509C321.84 47.6309 321.46 47.6209 321.08 47.6309C320.21 47.6509 319.48 47.7209 318.8 47.8509C318.2 48.4409 317.3 50.7109 316.92 51.7209L317.03 51.5509C317.05 51.5309 317.05 51.5209 317.07 51.5109Z" fill="white"/>
<path d="M326.38 50.8008L326.39 50.8108C326.39 50.8008 326.39 50.8008 326.38 50.8008Z" fill="white"/>
<path d="M326.38 50.8008L326.39 50.8108C326.39 50.8008 326.39 50.8008 326.38 50.8008Z" fill="white"/>
<path d="M332.45 52.4007C333.72 52.8007 335.03 53.2707 336.36 53.7907L337.59 52.0007C334.06 50.4107 330.81 49.2707 327.69 48.5107L326.39 50.7907C326.54 50.8207 326.69 50.8507 326.84 50.8807C328.48 51.2107 330.26 51.6907 332.45 52.4007Z" fill="white"/>
<path d="M351.83 59.6504C351.8 59.7104 351.78 59.7804 351.75 59.8404L351.83 59.6504Z" fill="white"/>
<path d="M351.83 59.6504C351.8 59.7104 351.78 59.7804 351.75 59.8404L351.83 59.6504Z" fill="white"/>
<path d="M351.17 61.3002L351.69 60.0002C350.55 59.2102 349.47 58.4902 348.4 57.8202C345.71 56.1302 342.9 54.5602 340.04 53.1602L338.87 54.8202C341.84 56.0902 344.78 57.5502 347.61 59.1602C348.78 59.8302 349.95 60.5302 351.17 61.3002Z" fill="white"/>
<path d="M356.49 63.5911C355.37 62.6811 354.18 61.7711 352.94 60.8711L352.33 62.0411C353.56 62.8511 354.73 63.6611 355.81 64.4611C358.13 66.1611 360.23 67.9711 362.05 69.8511L362.25 70.0611L362.53 69.1511C360.96 67.4511 358.98 65.6311 356.49 63.5911Z" fill="white"/>
<path d="M362.77 68.4302L362.76 68.4102C362.72 68.5702 362.68 68.7202 362.64 68.8802L362.77 68.4302Z" fill="white"/>
<path d="M362.77 68.4302L362.76 68.4102C362.72 68.5702 362.68 68.7202 362.64 68.8802L362.77 68.4302Z" fill="white"/>
<path d="M313.8 58.9504C313.8 58.9504 313.2 61.6904 313.92 63.3004C314.08 63.6604 314.21 63.9404 314.33 64.1904C314.27 63.8704 314.24 63.5804 314.25 63.3304C314.26 63.1904 314.29 63.0504 314.31 62.9504L314.45 62.6104L314.59 62.4004L314.73 62.2504C314.76 62.2104 314.82 62.1704 314.88 62.1304L314.97 62.0504C315.25 61.8704 315.54 61.7304 315.85 61.6304C316.42 61.4404 317.13 61.3304 318.03 61.3004L316.15 58.8604C315.76 58.9304 315.39 59.0104 315.04 59.1204C314.57 59.2704 314.12 59.4704 313.68 59.7304" fill="white"/>
<path d="M318.11 61.3904L318.09 61.3604C318.08 61.3904 318.08 61.4104 318.07 61.4404L318.11 61.3904Z" fill="white"/>
<path d="M318.11 61.3904L318.09 61.3604C318.08 61.3904 318.08 61.4104 318.07 61.4404L318.11 61.3904Z" fill="white"/>
<path d="M331.73 61.8909L331.64 62.0609C328.84 60.8709 326.25 59.9909 323.73 59.4009C322.85 59.1909 322.04 59.0309 321.26 58.9209L320.67 60.3809L321.99 61.6309C322.42 61.7009 322.82 61.7709 323.2 61.8509C324.66 62.1409 326.25 62.5709 328.19 63.1909C328.99 63.4409 329.8 63.7309 330.68 64.0509L331.75 61.8909C331.74 61.8809 331.73 61.8809 331.73 61.8909Z" fill="white"/>
<path d="M349.67 72.9811C347.5 71.2211 345.08 69.4811 342.47 67.8211C339.6 66.0011 336.73 64.4011 333.91 63.0811L332.86 64.9011L332.95 64.9411C335.93 66.1611 338.87 67.5811 341.67 69.1611C344.32 70.6411 346.78 72.2211 348.99 73.8611C351.07 75.3811 352.94 76.9911 354.55 78.6511C355.47 79.5811 356.26 80.5011 356.91 81.4011C356.5 81.3211 356.09 81.2311 355.7 81.1411C355.68 81.1411 355.67 81.1311 355.65 81.1311L355.75 81.2011C355.75 81.2011 357.4 81.5911 357.92 81.5811C357.22 80.5111 356.29 79.3311 355.15 78.0811C353.73 76.4911 351.93 74.8311 349.67 72.9811Z" fill="white"/>
<path d="M332.69 65.2002L332.56 65.4202L332.57 65.4302L332.59 65.3902C332.63 65.3202 332.66 65.2602 332.69 65.2002Z" fill="white"/>
<path d="M332.69 65.2002L332.56 65.4202L332.57 65.4302L332.59 65.3902C332.63 65.3202 332.66 65.2602 332.69 65.2002Z" fill="white"/>
<path d="M315.79 74.251C315.74 74.051 315.72 73.841 315.72 73.661C315.73 73.621 315.73 73.571 315.74 73.531C315.74 73.501 315.75 73.451 315.76 73.421L315.84 73.221L315.93 73.081L316 73.041L316.02 72.991C316.04 72.981 316.05 72.961 316.07 72.951L316.13 72.901C316.31 72.781 316.5 72.691 316.71 72.621C316.77 72.601 316.84 72.581 316.91 72.561C317.01 72.661 317.11 72.761 317.21 72.851L314.98 70.501C314.85 70.571 314.72 70.641 314.6 70.731L314.49 70.821C314.33 70.941 314.17 71.061 314 71.271C313.98 71.291 313.96 71.311 313.95 71.331C314.14 71.751 315.17 73.941 316.66 76.141C316.59 76.021 316.5 75.901 316.44 75.781C316.09 75.181 315.88 74.681 315.79 74.251Z" fill="white"/>
<path d="M313.91 71.2502C313.91 71.2502 313.92 71.2702 313.93 71.2902C313.93 71.2702 313.92 71.2602 313.92 71.2402L313.91 71.2502Z" fill="white"/>
<path d="M313.91 71.2502C313.91 71.2502 313.92 71.2702 313.93 71.2902C313.93 71.2702 313.92 71.2602 313.92 71.2402L313.91 71.2502Z" fill="white"/>
<path d="M322.09 72.7706C323.19 72.9806 324.34 73.2906 325.83 73.7506C326.17 73.8606 326.5 73.9706 326.84 74.0806C326.81 74.1606 326.79 74.2506 326.77 74.3306C326.75 74.4206 326.72 74.5106 326.7 74.6006L327.66 71.5006C327.62 71.6306 327.57 71.7706 327.53 71.9006C325.82 71.2106 324.22 70.6906 322.64 70.3106C321.42 70.0106 320.3 69.8406 319.22 69.7806V69.3506L319.1 71.4506L321.01 73.0606C320.79 72.8706 320.57 72.6806 320.36 72.4706C320.98 72.5706 321.56 72.6606 322.09 72.7706Z" fill="white"/>
<path d="M328.3 75.4404L328.31 75.4504C328.34 75.3504 328.37 75.2504 328.4 75.1504L328.3 75.4404Z" fill="white"/>
<path d="M328.3 75.4404L328.31 75.4504C328.34 75.3504 328.37 75.2504 328.4 75.1504L328.3 75.4404Z" fill="white"/>
<path d="M330.27 73.1309C329.96 72.9809 329.64 72.8309 329.32 72.6909C329.38 72.5409 329.45 72.3809 329.51 72.2209L329.49 72.2109L328.57 74.7109C328.86 74.8209 329.14 74.9309 329.43 75.0409C331.67 75.9409 333.89 76.9909 336.02 78.1609C338 79.2409 339.86 80.4209 341.55 81.6509C343.09 82.7609 344.5 83.9609 345.76 85.2309C346.83 86.3009 347.7 87.4009 348.26 88.4109L349.27 88.6909V88.6709C349.24 88.6609 349.21 88.6609 349.18 88.6509C349.11 88.5009 349.04 88.3609 348.96 88.2109C348.41 87.1709 347.54 85.9709 346.35 84.6609C345.28 83.4809 343.93 82.2209 342.21 80.7809C340.55 79.4109 338.73 78.0809 336.79 76.8209" fill="white"/>
<path d="M371.78 57.7006C371.69 57.2706 371.59 56.8406 371.48 56.4206C371.43 56.1706 371.36 55.9306 371.29 55.7306C370.47 52.8106 369.26 50.0706 367.68 47.6006C365.48 44.1306 362.55 41.0806 359.19 38.8106C355.51 36.3006 351.32 34.5906 347.06 33.8606C342.64 33.1006 337.96 33.3406 333.53 34.5506C329.12 35.8006 325 38.0206 321.6 40.9606C318.36 43.7506 315.66 47.3706 313.78 51.4606C313.66 51.7506 313.54 52.0506 313.42 52.3406C313.13 53.0306 312.83 53.7306 312.63 54.4406C312.58 54.6106 312.52 54.7806 312.46 54.9506C312.35 55.2706 312.24 55.6006 312.15 55.9406L311.79 57.4206C311.67 57.8606 311.6 58.3006 311.53 58.7206L311.49 58.9406C311.46 59.1106 311.44 59.2806 311.41 59.4506C311.35 59.7806 311.3 60.1106 311.26 60.4406C311.24 60.7206 311.21 60.9906 311.19 61.2606C311.13 61.9606 311.06 62.6806 311.07 63.3906L311.06 63.9006C311.05 64.2106 311.05 64.5306 311.06 64.8506L311.19 67.0006L311.27 67.6806C311.29 67.8206 311.31 67.9706 311.32 68.1106C311.36 68.4206 311.39 68.7206 311.46 69.0206C311.72 70.6106 312.13 72.2006 312.78 74.1606C313.84 77.1106 315.3 79.8306 317.12 82.2506C318.6 84.1906 320.29 85.9506 322 87.3306C323.48 88.5506 324.76 89.3506 325.71 89.9206L327.08 90.6906L327.42 90.1206L326.1 89.2506C325.84 89.0906 325.55 88.8706 325.22 88.6206C325.03 88.4706 324.82 88.3206 324.59 88.1506C324.4 88.0206 324.21 87.8506 324.02 87.6906C323.91 87.6006 323.8 87.5006 323.7 87.4206C323.59 87.3206 323.47 87.2306 323.35 87.1306C323.13 86.9506 322.91 86.7706 322.68 86.5406C321.38 85.3806 320.11 83.9606 318.96 82.4106C320.2 83.4606 321.59 84.4906 323.21 85.5506C325.35 86.9406 327.56 88.1806 329.76 89.2206C331.68 90.1606 333.76 91.0306 335.95 91.8106L336.29 91.9206C337.16 92.2106 337.97 92.4806 338.78 92.7106C339.63 92.9406 340.53 93.1806 341.4 93.3406C342.66 93.5906 343.81 93.7206 344.84 93.7506C345.17 93.7606 345.48 93.7506 345.79 93.7406C346.95 93.6806 347.98 93.3706 348.61 92.9006C348.92 92.6606 349.11 92.4406 349.22 92.2806L349.65 92.3606L349.43 91.9206C349.51 91.7506 349.63 91.4506 349.67 91.0106C349.71 90.6206 349.66 90.1706 349.55 89.7206C349.53 89.6506 349.51 89.5806 349.49 89.5006C349.61 89.5206 349.72 89.5306 349.84 89.5506C350 89.5706 350.17 89.6006 350.34 89.6206L351.18 89.7406C351.4 89.7706 351.63 89.8006 351.85 89.8106C352.07 89.8206 352.29 89.8406 352.5 89.8506C353.21 89.9006 353.89 89.9406 354.51 89.9006C356.03 89.8206 357.37 89.4306 358.19 88.8106C358.57 88.5106 358.82 88.2606 358.94 88.0606L359.13 87.7906L358.87 87.6106L359.16 87.7406L359.3 87.4306C359.42 87.1506 359.51 86.7906 359.56 86.3806C359.59 85.8506 359.54 85.2906 359.4 84.7206C359.24 84.0906 358.96 83.4106 358.58 82.6906C358.52 82.5806 358.46 82.4706 358.4 82.3606C359.73 82.5206 360.92 82.5706 361.97 82.5106C363.7 82.4206 365.2 81.9806 366.12 81.2806C366.31 81.1406 366.48 81.0006 366.63 80.8206C366.76 80.6906 366.87 80.5706 366.93 80.4606L367.14 80.1506L366.88 79.9806L367.16 80.1106L367.32 79.7706C367.42 79.5506 367.5 79.2806 367.55 78.9706L368.08 79.2506L368.87 77.8706L369 77.6206C369.47 76.7006 370.12 75.4306 370.7 73.7406C371.46 71.5906 371.97 69.2706 372.22 66.8606C372.57 63.8506 372.42 60.7706 371.78 57.7006ZM366.05 51.8106C366.4 52.2006 366.68 52.5406 366.95 52.8706C367.63 53.7306 368.12 54.4706 368.49 55.1806C369 56.1706 369.23 56.9406 369.19 57.5306C369.18 57.6706 369.16 57.8106 369.11 57.9406C369.05 58.0806 369 58.1906 368.9 58.3006L368.77 58.4306C368.72 58.4806 368.65 58.5206 368.6 58.5606C368.45 58.6606 368.28 58.7306 368.11 58.7906C367.5 59.0106 366.7 59.1106 365.63 59.0806C365.64 58.5406 365.63 58.0306 365.61 57.5406C365.52 55.7106 365.26 53.9406 364.83 52.2606C364.93 52.2406 365.02 52.2106 365.11 52.1906C365.35 52.1306 365.53 52.0506 365.7 51.9806L365.9 51.8906C365.95 51.8606 366 51.8306 366.05 51.8106ZM362.76 68.4006L362.62 68.8506C362.59 68.9506 362.57 69.0506 362.54 69.1406L362.53 69.1306L362.25 70.0406L362.26 70.0506C362.23 70.1406 362.2 70.2306 362.17 70.3106C362.12 70.4606 362.07 70.5906 362.02 70.7306L361.91 70.7106C360.61 70.4406 359.18 70.0506 357.53 69.5306C356.17 69.0906 354.7 68.5506 352.75 67.7606C351.89 67.4106 350.98 67.0206 349.84 66.4906C350.1 66.0706 350.38 65.5806 350.7 65.0206C351.28 64.0006 351.8 63.0106 352.31 62.0206L352.92 60.8506C352.91 60.8406 352.9 60.8406 352.9 60.8306C353.24 60.1306 353.57 59.4106 353.89 58.6906C355.6 59.4206 356.97 59.9306 358.28 60.3306C358.65 60.4606 359.04 60.5606 359.41 60.6606C359.6 60.7106 359.79 60.7606 359.98 60.8106L360.84 61.0406L361.9 61.2506C362.42 61.3506 362.96 61.4606 363.46 61.5106L363.86 61.5606C363.81 62.6706 363.69 63.7906 363.52 64.8806C363.32 66.0806 363.05 67.2506 362.73 68.4006H362.76ZM330.66 64.0106C330.61 64.1206 330.56 64.2306 330.52 64.3406L329.61 66.3606C329.52 66.5506 329.44 66.7406 329.36 66.9406L329.05 67.7406C327.77 66.7706 326.56 65.7906 325.44 64.8106C324.45 63.9506 323.2 62.8306 321.98 61.5806C321.99 61.5806 321.99 61.5806 322 61.5806L320.68 60.3306L321.27 58.8706H321.26C321.66 57.8106 322.11 56.7806 322.6 55.8006C323.28 54.4506 324.06 53.1306 324.93 51.8706C325.85 53.0406 326.89 54.1906 328.04 55.3006L328.96 56.1806L331.22 58.1506C331.48 58.3706 331.74 58.6006 332.01 58.8006L332.95 59.5206C332.83 59.7506 332.71 59.9806 332.59 60.2106C332.49 60.4106 332.38 60.6206 332.27 60.8306C332.1 61.1706 331.92 61.5106 331.75 61.8406L330.66 64.0106ZM332.28 55.9606C331.99 55.7306 331.7 55.4906 331.41 55.2806L329.47 53.7106C328.25 52.6406 327.24 51.6806 326.39 50.7806L326.37 50.7706V50.7606L327.67 48.4806C327.65 48.4806 327.63 48.4706 327.61 48.4706C327.9 48.1506 328.16 47.8706 328.42 47.6006C329.91 46.0706 331.55 44.7206 333.31 43.5606C334.18 44.8306 335.3 46.1406 336.63 47.4606C337.4 48.2206 338.26 49.0006 339.19 49.7806C338.63 50.5206 338.09 51.2606 337.59 51.9806C337.58 51.9806 337.58 51.9706 337.57 51.9706L336.34 53.7606C336.35 53.7606 336.36 53.7706 336.37 53.7706C335.67 54.8206 334.96 55.9606 334.2 57.2606L334.14 57.3606L333.45 56.8706C333.05 56.5806 332.66 56.2606 332.28 55.9606ZM347.81 40.9206C347.23 41.3306 346.66 41.7906 346.05 42.3006C345.71 42.0506 345.37 41.7906 345.05 41.5106L344.43 41.0006C344.32 40.9006 344.22 40.8006 344.11 40.7106C344.02 40.6206 343.92 40.5406 343.82 40.4606C343.62 40.2806 343.43 40.1206 343.27 39.9406L343.05 39.7106C344.3 39.5206 345.52 39.4506 346.68 39.5006C347.66 39.5506 348.61 39.6606 349.51 39.8406C348.85 40.2106 348.27 40.6006 347.81 40.9206ZM348.16 46.9206C348.83 47.4006 349.47 47.7806 350.15 48.1906C350.37 48.3206 350.6 48.4606 350.84 48.6106C351.73 49.0906 352.68 49.6006 353.66 50.0406C353.99 50.1906 354.31 50.3306 354.64 50.4706C354.33 51.9606 353.92 53.4906 353.4 55.1506L353.26 55.5806L352.95 55.4506C350.78 54.4206 348.98 53.5506 347.23 52.5406C345.5 51.5506 343.99 50.6206 342.62 49.7006C342.92 49.3406 343.21 48.9806 343.52 48.6306C344.51 47.4706 345.43 46.4806 346.33 45.6006C346.96 46.0806 347.54 46.5206 348.16 46.9206ZM343.58 43.1006C343.81 43.3406 344.06 43.6006 344.34 43.8606C343.45 44.7306 342.52 45.7206 341.51 46.8806C341.15 47.3006 340.8 47.7206 340.46 48.1506C339.48 47.4306 338.63 46.7606 337.87 46.1106C336.54 44.9706 335.42 43.8606 334.52 42.8006C335.29 42.3506 336.06 41.9506 336.8 41.6006C338.22 40.9406 339.7 40.4206 341.19 40.0606L341.22 40.1106C341.34 40.3306 341.49 40.5306 341.64 40.7506C341.72 40.8606 341.79 40.9706 341.87 41.0806C342.04 41.3406 342.23 41.5706 342.42 41.8006C342.5 41.9006 342.58 41.9906 342.66 42.0906C342.76 42.2106 342.86 42.3306 342.96 42.4506L343.58 43.1006ZM338.57 55.1606C338.65 55.0406 338.73 54.9206 338.82 54.8006L338.84 54.7806C338.85 54.7806 338.85 54.7906 338.86 54.7906L340.04 53.1306C340.03 53.1206 340.02 53.1206 340.01 53.1106C340.4 52.5706 340.82 52.0106 341.28 51.4106C342.85 52.6006 344.45 53.6806 346.02 54.6206C347.97 55.8006 349.93 56.8706 351.88 57.7906L352.42 58.0306C352.23 58.5706 352.03 59.0906 351.83 59.6106L351.75 59.8006C351.73 59.8506 351.71 59.9106 351.69 59.9606L351.16 61.2606C351.16 61.2606 351.16 61.2606 351.17 61.2606C350.74 62.3206 350.28 63.3906 349.77 64.5206C349.5 65.1206 349.26 65.6406 349.05 66.0906C348.63 65.8906 348.21 65.7006 347.79 65.4906C346.13 64.6806 344.45 63.8006 342.81 62.8606L340.35 61.4206C340.2 61.3306 340.05 61.2406 339.9 61.1606C339.64 61.0106 339.38 60.8606 339.13 60.7006L336.8 59.1706C336.61 59.0506 336.42 58.9306 336.23 58.8006C336.9 57.7206 337.65 56.5506 338.57 55.1606ZM357.57 44.3906C357.99 44.6906 358.45 45.0306 358.93 45.4006C360.01 46.6606 360.92 48.0606 361.64 49.5606C361.79 49.8806 361.94 50.2106 362.09 50.5806C361.44 50.4206 360.73 50.1906 359.89 49.9006C359.22 49.6706 358.54 49.3906 357.82 49.0806L357.15 48.7906C357.4 47.4706 357.54 46.3206 357.58 45.1906C357.58 44.9706 357.58 44.6906 357.57 44.3906ZM359.29 51.9706C360.18 52.1806 361.05 52.3206 361.87 52.3806C362.16 52.4106 362.45 52.4306 362.76 52.4306C363.29 54.1006 363.64 55.8506 363.8 57.6506C363.83 58.0406 363.86 58.4606 363.88 58.9006L363.78 58.8906C363.32 58.8406 362.91 58.7506 362.47 58.6606L361.46 58.4506L360.67 58.2306C360.48 58.1706 360.3 58.1206 360.11 58.0806C359.76 57.9906 359.43 57.9006 359.09 57.7706C357.84 57.4006 356.53 56.9206 354.9 56.2506C354.97 56.0806 355.04 55.9006 355.11 55.7206C355.74 54.0406 356.22 52.5906 356.59 51.1906C357.54 51.5206 358.44 51.7806 359.29 51.9706ZM364.03 49.7106C364.45 50.1206 364.86 50.5306 365.24 50.9406C365.13 50.9606 364.99 50.9706 364.9 50.9706L364.54 50.9806H364.46C364.33 50.5306 364.18 50.1106 364.03 49.7106ZM357.84 40.8106C361.02 42.9206 363.8 45.6706 365.88 48.7706C365.9 48.8006 365.92 48.8306 365.94 48.8706C365.48 48.4706 365 48.0606 364.47 47.6406C363.73 47.0606 362.97 46.4906 362.14 45.9206C360.79 43.7606 359.14 41.9606 357.23 40.5906C356.71 40.2106 356.12 39.8306 355.45 39.4506C355.4 39.4106 355.34 39.3806 355.28 39.3406L355 39.1806C354.6 38.9606 354.18 38.7606 353.77 38.5706C355.2 39.2106 356.56 39.9606 357.84 40.8106ZM353.55 41.2906C353.58 41.2906 353.6 41.3006 353.63 41.3006C353.68 41.3106 353.74 41.3306 353.76 41.3206C353.78 41.3306 353.8 41.3406 353.83 41.3506C353.9 41.3906 353.98 41.4306 354.05 41.4706L354.21 41.5606L354.37 41.2706L354.22 41.5706C354.25 41.6006 354.28 41.6306 354.31 41.6506C354.36 41.6906 354.39 41.7206 354.44 41.7906C354.48 41.8406 354.52 41.8906 354.56 41.9406L354.41 42.2006C354.41 42.2006 354.56 42.3006 354.83 42.4806C355.1 43.1306 355.23 43.9906 355.26 45.1706C355.27 45.9806 355.21 46.8506 355.09 47.8206C354.99 47.7706 354.88 47.7206 354.78 47.6706C354.02 47.2906 353.18 46.8506 352.15 46.2706C351.9 46.1206 351.63 45.9706 351.37 45.8106C350.76 45.4506 350.13 45.0906 349.57 44.7206C349.11 44.4406 348.65 44.1306 348.24 43.8606C348.61 43.5506 348.97 43.2806 349.31 43.0306C350.58 42.1206 351.59 41.6006 352.51 41.3606C352.62 41.3306 352.72 41.3106 352.88 41.2906C352.98 41.2706 353.07 41.2706 353.16 41.2706H353.24C353.29 41.2606 353.34 41.2706 353.41 41.2806C353.46 41.2806 353.5 41.2806 353.55 41.2906ZM341.19 36.2306C341.2 36.1906 341.21 36.1606 341.21 36.1506L341.23 36.0606C343.05 36.0106 344.86 36.1306 346.63 36.4206C348.56 36.7406 350.46 37.2806 352.28 37.9806C350.58 37.3706 348.73 37.0206 346.8 36.9206C345.02 36.8306 343.18 36.9706 341.32 37.3506C341.3 37.3006 341.28 37.2506 341.27 37.2106C341.17 36.8906 341.13 36.5806 341.17 36.3606C341.17 36.3106 341.18 36.2706 341.19 36.2306ZM332.43 37.7006C333.12 37.4606 333.7 37.2706 334.26 37.1106C336.29 36.5406 338.37 36.2006 340.46 36.0906C340.45 36.1106 340.44 36.1306 340.43 36.1606C340.27 36.5006 340.2 36.9606 340.24 37.4106C340.24 37.4706 340.25 37.5406 340.26 37.6006C338.69 37.9906 337.16 38.5306 335.69 39.2006C334.79 39.6206 333.91 40.0906 332.99 40.6506C332.9 40.4806 332.82 40.3206 332.75 40.1806C332.41 39.4806 332.25 38.7406 332.32 38.2106C332.34 37.9706 332.38 37.8206 332.43 37.7006ZM323.02 43.1706C323.29 42.9206 323.02 43.1706 323.3 42.9306C325.68 40.8906 328.51 39.2006 331.55 38.0206C331.55 38.0306 331.54 38.0406 331.54 38.0606C331.45 38.4006 331.3 39.3206 331.75 40.5706C331.82 40.7806 331.91 41.0006 332.02 41.2606C330.05 42.5506 328.22 44.0806 326.57 45.7906C325.94 46.4406 325.32 47.1406 324.72 47.8906C324.47 47.8506 324.21 47.8206 323.96 47.7906C323.92 47.7406 323.88 47.6806 323.85 47.6306C323.23 46.6806 323.16 45.5006 322.97 44.7606C322.8 44.1406 323 43.4806 323.02 43.1706ZM316.62 52.5106C316.63 52.4006 316.65 52.3006 316.68 52.2106C316.69 52.1706 316.7 52.1306 316.71 52.0906C316.72 52.0706 316.73 52.0306 316.75 51.9906L316.85 51.7806L316.91 51.6906C317.29 50.6806 318.2 48.4106 318.79 47.8206C318.78 47.8206 318.77 47.8206 318.76 47.8306L319.11 47.3706C319.85 46.4006 320.67 45.4606 321.54 44.5806C321.54 44.8006 321.55 45.0306 321.58 45.2606C321.67 45.9806 321.9 46.7906 322.27 47.6306C322.26 47.6306 322.25 47.6306 322.24 47.6306L322.92 50.2806C322.93 50.2806 322.94 50.2806 322.95 50.2806C322.94 50.2906 322.93 50.3006 322.93 50.3206L322.94 50.3406L322.92 50.3506C322 51.7306 321.17 53.1806 320.44 54.6906C319.91 55.7906 319.44 56.9506 319.02 58.1506C318.5 57.4606 318.09 56.8406 317.74 56.2406C317.21 55.3006 316.87 54.5006 316.71 53.7906C316.62 53.4306 316.59 53.0506 316.6 52.7006C316.6 52.6406 316.61 52.5806 316.62 52.5106ZM313.8 58.9206L313.85 58.9106C314.07 57.9106 314.32 56.9006 314.65 55.9006C314.87 56.4206 315.14 56.9506 315.48 57.5406C315.73 57.9606 315.99 58.3706 316.28 58.7906C316.23 58.8006 316.19 58.8106 316.14 58.8206L318.02 61.2606C318.04 61.2606 318.06 61.2606 318.09 61.2606C318.08 61.2806 318.08 61.3106 318.07 61.3306L318.09 61.3606L318.05 61.4106C317.81 62.4106 317.62 63.4106 317.48 64.4006C317.39 65.0606 317.33 65.7206 317.27 66.3606L317.18 68.5206C317.18 68.6706 317.18 68.7906 317.19 68.9106L317.2 69.1506L316.27 67.9806L315.89 67.4406C315.67 67.1106 315.44 66.7606 315.23 66.3906C314.78 65.6106 314.48 64.8906 314.33 64.2606C314.32 64.2306 314.32 64.2006 314.31 64.1606C314.2 63.9206 314.06 63.6306 313.9 63.2706C313.19 61.6706 313.8 58.9206 313.8 58.9206ZM318.7 78.7506C318.27 78.2906 317.86 77.7906 317.47 77.2806C317.14 76.8506 316.88 76.4706 316.65 76.1106C315.17 73.9006 314.14 71.7106 313.94 71.2906L313.93 71.3006C313.93 71.2806 313.92 71.2706 313.92 71.2506C313.91 71.2306 313.9 71.2106 313.9 71.2106L313.91 71.1906C313.71 70.3206 313.57 69.5206 313.47 68.7606V68.7506C313.45 68.6406 313.44 68.5306 313.42 68.4106C313.54 68.6006 313.66 68.7806 313.78 68.9406L314.19 69.5006L314.98 70.4606C314.98 70.4606 314.97 70.4606 314.97 70.4706L317.2 72.8106C317.33 72.9306 317.45 73.0606 317.58 73.1806C317.59 73.2706 317.61 73.3606 317.63 73.4506C318.06 75.7706 318.78 77.9406 319.71 79.8006C319.38 79.4806 319.03 79.1206 318.7 78.7506ZM324.44 83.8506C324 83.5206 323.56 83.1706 323.12 82.8206C322.5 81.9406 321.94 81.0006 321.46 80.0206C320.75 78.5906 320.19 76.9506 319.79 75.1406C321.29 76.3906 322.95 77.6206 324.83 78.8806L325.67 79.4406C325.64 79.6506 325.61 79.8606 325.59 80.0606C325.39 81.7806 325.4 83.3606 325.61 84.6406C325.61 84.6606 325.62 84.6906 325.62 84.7106C325.22 84.4306 324.83 84.1406 324.44 83.8506ZM325.88 77.0606C325.26 76.6106 324.63 76.1406 324.03 75.6406C323.83 75.4806 323.63 75.3206 323.43 75.1506C322.97 74.7806 322.5 74.4006 322.06 74.0006C321.83 73.7906 321.59 73.5806 321.35 73.3706C321.23 73.2706 321.11 73.1506 320.99 73.0506L319.08 71.4406L319.2 69.3406V69.0706C319.2 68.6406 319.23 68.1906 319.26 67.7206C319.28 67.4506 319.3 67.1806 319.31 66.9306L319.36 66.4806C319.43 65.9006 319.5 65.3006 319.6 64.7106C319.7 64.1606 319.81 63.6006 319.94 63.0406C322.24 65.3106 324.96 67.5006 328.22 69.7206C328.04 70.1606 327.87 70.6306 327.73 71.1106C327.69 71.2306 327.66 71.3406 327.62 71.4606L326.66 74.5606C326.42 75.4306 326.21 76.3106 326.03 77.1806L325.88 77.0606ZM349.04 90.9606C349.01 91.4006 348.88 91.6306 348.83 91.7206L348.79 91.7906C348.73 91.8906 348.59 92.1106 348.25 92.3606C347.73 92.7406 346.81 92.9906 345.8 93.0306C344.54 93.0806 343.1 92.9106 341.62 92.5406C339.92 92.1406 338.16 91.5506 336.37 90.7806C336.04 90.6606 335.73 90.5106 335.4 90.3606C335.25 90.2906 335.11 90.2206 334.96 90.1606C334.79 90.0806 334.62 90.0006 334.44 89.9206C334.13 89.7806 333.81 89.6406 333.51 89.4806C333.25 89.3406 332.99 89.2106 332.73 89.0706C332.01 88.6906 331.26 88.3106 330.53 87.8606C329.37 87.2106 328.12 86.4306 326.82 85.5406C326.75 85.2106 326.7 84.8706 326.68 84.5206C326.6 83.3906 326.71 81.9606 327.02 80.2806C327.27 80.4306 327.52 80.5806 327.77 80.7406C328.24 81.0306 328.71 81.3106 329.18 81.5706L331.31 82.7506C331.79 83.0106 332.26 83.2406 332.72 83.4706C332.96 83.5906 333.21 83.7106 333.44 83.8306C334.44 84.3606 335.46 84.8106 336.45 85.2406C336.84 85.4106 337.22 85.5806 337.6 85.7506C338.04 85.9506 338.49 86.1206 338.93 86.2906C339.16 86.3806 339.4 86.4706 339.63 86.5706L340.16 86.7806C340.63 86.9706 341.11 87.1606 341.59 87.3106L343.48 87.9606C343.88 88.1006 344.29 88.2206 344.69 88.3306C344.9 88.3906 345.11 88.4506 345.32 88.5106C346.32 88.8306 347.29 89.0406 348.23 89.2506L348.74 89.3606C348.82 89.5606 348.88 89.7406 348.93 89.9106C349.05 90.3806 349.06 90.7406 349.04 90.9606ZM358.76 84.9106C358.89 85.4106 358.94 85.8906 358.92 86.3406C358.87 86.7806 358.78 87.0606 358.73 87.1706L358.6 87.4406L358.41 87.7106C358.36 87.7906 358.22 87.9806 357.81 88.2906C357.1 88.8006 355.87 89.1506 354.49 89.2006C353.91 89.2406 353.26 89.1906 352.58 89.1406C352.36 89.1206 352.14 89.1106 351.91 89.0906C351.62 89.0806 351.31 89.0206 350.99 88.9606C350.82 88.9306 350.65 88.9006 350.49 88.8706C350.32 88.8406 350.16 88.8106 349.99 88.7806C349.75 88.7406 349.51 88.6906 349.26 88.6406V88.6606L348.25 88.3806C348.25 88.3806 348.25 88.3906 348.26 88.3906C347.4 88.1706 346.5 87.9406 345.59 87.6206C345.38 87.5506 345.16 87.4806 344.95 87.4106C344.57 87.2906 344.18 87.1706 343.81 87.0106L341.95 86.2806C341.5 86.1206 341.06 85.9206 340.6 85.7006L340.07 85.4606C339.84 85.3506 339.6 85.2506 339.36 85.1406C338.95 84.9606 338.53 84.7706 338.12 84.5706C337.76 84.3806 337.4 84.2006 337.04 84.0106C336.09 83.5306 335.11 83.0206 334.15 82.4506C333.91 82.3106 333.66 82.1706 333.41 82.0306C332.98 81.7806 332.54 81.5406 332.12 81.2806L330.06 79.9906C329.62 79.7206 329.19 79.4206 328.76 79.1206C328.52 78.9506 328.28 78.7806 328.03 78.6206L327.45 78.2206C327.68 77.3206 327.97 76.3806 328.28 75.4106L328.27 75.4006L328.38 75.1106C328.41 75.0206 328.44 74.9306 328.47 74.8406L328.53 74.6706H328.54L329.46 72.1706L329.48 72.1806C329.65 71.7606 329.81 71.3306 329.99 70.9006C332.7 72.6406 335.49 74.2306 338.31 75.6406C341.39 77.1806 344.46 78.5106 347.44 79.5706C350.42 80.6306 353.13 81.4106 355.51 81.9006C356.17 82.0306 356.84 82.1506 357.5 82.2506C357.67 82.5206 357.83 82.7806 357.96 83.0406C358.35 83.7106 358.61 84.3406 358.76 84.9106ZM366.74 79.5006L366.6 79.8106L366.39 80.1206C366.35 80.1906 366.26 80.2806 366.12 80.4206C366.03 80.5306 365.89 80.6306 365.7 80.7806C364.93 81.3606 363.54 81.7406 361.96 81.8106C360.77 81.8706 359.41 81.7706 357.92 81.5406C357.4 81.5506 355.75 81.1606 355.75 81.1606L355.65 81.0906C353 80.4506 350.38 79.6006 347.85 78.5506C344.97 77.3706 342.01 75.9306 339.06 74.2806C336.25 72.7106 333.48 70.9506 330.82 69.0506C330.88 68.9206 330.94 68.7806 331 68.6406L331.36 67.8206C331.44 67.6506 331.52 67.4806 331.61 67.3206L332.57 65.3906L332.56 65.3806L332.69 65.1606C332.74 65.0606 332.79 64.9506 332.84 64.8506L332.86 64.8606L333.91 63.0406C333.88 63.0306 333.86 63.0106 333.83 63.0006L334.4 61.9706C334.57 61.6606 334.74 61.3506 334.92 61.0306C335.24 61.2606 335.57 61.4806 335.9 61.7006C336.12 61.8406 336.33 61.9906 336.55 62.1406L337.75 62.9506C338.02 63.1306 338.29 63.2906 338.56 63.4506C338.7 63.5306 338.84 63.6206 338.99 63.7106L341.48 65.2106C343.19 66.1606 344.93 67.0506 346.66 67.8606C348.17 68.5706 349.83 69.2606 351.88 70.0206C353.46 70.6106 355.16 71.1406 356.93 71.6006C358.41 71.9906 359.9 72.2806 361.35 72.4706C361.15 72.9506 360.97 73.3606 360.82 73.6906L358.32 78.4406L358.8 78.7006L361.51 74.0506L361.59 73.9006C361.79 73.5306 362.03 73.0906 362.3 72.5706C363.08 72.6506 363.83 72.6806 364.51 72.6806C365.07 73.4306 365.54 74.1506 365.9 74.8306C366.31 75.5906 366.61 76.3006 366.78 76.9406C366.93 77.5006 366.99 78.0506 366.96 78.5606C366.91 79.0506 366.8 79.3606 366.74 79.5006ZM369.73 73.4306C369.23 75.1106 368.7 76.4006 368.21 77.5306L367.62 78.7406C367.63 78.7006 367.63 78.6506 367.64 78.6106C367.68 78.0206 367.62 77.4006 367.46 76.7606C367.28 76.0606 366.97 75.3006 366.54 74.4906C366.24 73.9206 365.86 73.3006 365.41 72.6506C365.51 72.6406 365.61 72.6406 365.71 72.6306C366.91 72.5406 367.99 72.2906 368.85 71.9206C369.58 71.6106 370.07 71.2006 370.36 70.9006C370.18 71.7506 369.97 72.6006 369.73 73.4306ZM370.55 69.7106L370.42 69.6206L370.26 69.8206C370.2 69.9006 370.12 70.0006 369.99 70.1106C369.83 70.2706 369.36 70.6606 368.47 70.9106C367.73 71.1306 366.79 71.2206 365.66 71.1906C365.23 71.1706 364.76 71.1406 364.22 71.0706C363.96 70.7406 363.68 70.4206 363.39 70.0806C364.05 68.4206 364.56 66.8006 364.93 65.1106C365.18 63.9606 365.36 62.7906 365.48 61.6506C366.54 61.6706 367.76 61.6106 369.01 61.1206C369.46 60.9306 369.97 60.6806 370.44 60.2306C370.82 62.4506 370.95 64.6406 370.84 66.7406C370.8 67.7606 370.7 68.7506 370.55 69.7106Z" fill="white"/>
<path d="M349.39 65.3507L343.16 77.1707L343.67 77.3507L350.71 65.0107" fill="white"/>
<g clip-path="url(#clip0_68_344)">
<path d="M544.412 72.59C544.517 73.4079 545.211 74.0221 546.038 74.0279L552.54 74.0686C552.451 72.7282 552.362 71.3864 552.286 70.0445C552.065 66.1558 551.862 62.2655 551.655 58.3768C551.48 55.1007 551.305 51.8261 551.139 48.5501C551.089 47.5721 551.163 46.6028 551.473 45.6655C551.78 44.7312 552.298 43.9744 553.373 43.612C553.348 43.6091 553.328 43.6062 553.309 43.6033C553.312 43.6033 553.313 43.6003 553.315 43.5989C553.322 43.5989 553.328 43.5974 553.329 43.596C553.335 43.596 553.369 43.5916 553.385 43.5887C553.386 43.5887 553.389 43.5887 553.391 43.5887C553.402 43.5843 553.412 43.58 553.424 43.5756C553.472 43.5756 553.516 43.5683 553.555 43.5552C553.596 43.5683 553.64 43.5756 553.69 43.5756C553.727 43.5756 553.762 43.5698 553.795 43.5625C553.828 43.5712 553.863 43.5756 553.898 43.5756H553.927C553.983 43.5771 554.034 43.5654 554.082 43.5407C554.092 43.5378 554.102 43.5334 554.113 43.529C554.149 43.5392 554.187 43.545 554.225 43.545H554.285C554.321 43.545 554.355 43.5407 554.388 43.5305C554.422 43.5392 554.457 43.5436 554.493 43.545H554.553C554.585 43.545 554.616 43.5421 554.645 43.5349C554.673 43.5407 554.702 43.545 554.732 43.545H554.762C554.817 43.5465 554.867 43.5349 554.915 43.5116C554.934 43.5145 554.951 43.5159 554.97 43.5159H555.03C555.03 43.5159 555.039 43.5159 555.045 43.5159C555.109 43.5872 555.202 43.6353 555.327 43.6353C555.332 43.644 555.336 43.6498 555.341 43.6513C556.344 43.9584 556.875 44.6992 556.993 45.6743C557.127 46.7687 557.216 47.8835 557.162 48.9809C556.97 52.89 556.725 56.7977 556.468 60.7039C556.303 63.2086 556.087 65.7104 555.892 68.2137C555.739 70.1726 555.583 72.1301 555.43 74.0876L561.532 74.1254C562.349 74.1312 563.046 73.5389 563.171 72.7341L570.76 24.1507C570.899 23.2644 570.301 22.4319 569.417 22.2762L539.463 17.0252C538.369 16.8345 537.402 17.7543 537.542 18.8546L544.412 72.59Z" fill="white"/>
<path d="M555.255 76.3735C555.214 76.9221 555.169 77.4694 555.129 78.018C555.058 78.9961 554.908 79.9755 555.091 80.9608C555.268 81.901 555.701 82.6563 556.524 83.1934C557.202 83.6358 557.871 84.1001 558.494 84.6138C560.05 85.8989 560.93 87.5944 561.117 89.5723C561.545 94.1029 560.564 98.3278 558.105 102.182C557.539 103.069 556.823 103.839 555.923 104.41C554.426 105.357 552.917 105.328 551.432 104.391C550.321 103.688 549.54 102.669 548.883 101.557C547.694 99.546 547.039 97.3469 546.588 95.0721C546.251 93.3781 546.186 91.6636 546.305 89.9594C546.466 87.6759 547.456 85.7665 549.33 84.3839C549.915 83.9531 550.526 83.5426 551.172 83.2137C552.36 82.6083 552.837 81.5968 552.864 80.3568C552.888 79.3133 552.806 78.2684 552.743 77.2249C552.726 76.9382 552.705 76.65 552.688 76.3633C543.922 76.9789 537 84.266 537 93.1714C537 102.077 543.795 109.236 552.45 109.966C552.453 109.936 552.454 109.905 552.457 109.875C552.981 109.93 553.512 109.962 554.05 109.962C554.324 109.962 554.595 109.952 554.865 109.937C554.865 109.958 554.868 109.978 554.868 109.998C563.743 109.493 570.786 102.154 570.786 93.17C570.786 84.1859 563.947 77.0648 555.255 76.372V76.3735Z" fill="white"/>
<path d="M577.795 79.8828H580.479C581.831 79.8828 582.793 80.5785 582.793 81.8126C582.793 82.5083 582.455 83.1094 581.885 83.415V83.4368C582.709 83.6799 583.1 84.4381 583.1 85.1978C583.1 86.6954 581.895 87.3693 580.511 87.3693H577.795V79.8828ZM580.48 82.9406C581.072 82.9406 581.411 82.5185 581.411 81.9815C581.411 81.4444 581.094 81.0529 580.46 81.0529H579.16V82.9406H580.481H580.48ZM580.617 86.1991C581.314 86.1991 581.705 85.7451 581.705 85.1134C581.705 84.4818 581.304 84.0379 580.617 84.0379H579.159V86.1991H580.617Z" fill="white"/>
<path d="M587.103 83.9954H587.282V83.9212C587.282 83.2153 586.839 82.9723 586.247 82.9723C585.475 82.9723 584.768 83.489 584.768 83.489L584.26 82.5299C584.26 82.5299 585.094 81.8662 586.374 81.8662C587.79 81.8662 588.614 82.6463 588.614 84.0071V87.3704H587.377V86.928C587.377 86.717 587.397 86.5482 587.397 86.5482H587.377C587.387 86.5482 586.964 87.4971 585.739 87.4971C584.778 87.4971 583.912 86.896 583.912 85.8205C583.912 84.1119 586.226 83.9969 587.103 83.9969V83.9954ZM586.078 86.4521C586.785 86.4521 587.292 85.6924 587.292 85.0389V84.9123H587.061C586.374 84.9123 585.264 85.0069 585.264 85.7564C585.264 86.1145 585.528 86.4521 586.078 86.4521Z" fill="white"/>
<path d="M590.008 81.9914H591.298V82.6128C591.298 82.8136 591.276 82.981 591.276 82.981H591.298C591.53 82.5269 592.122 81.8633 593.21 81.8633C594.404 81.8633 595.08 82.4847 595.08 83.9081V87.3661H593.748V84.1817C593.748 83.5282 593.579 83.0843 592.892 83.0843C592.205 83.0843 591.645 83.5384 591.445 84.1817C591.371 84.4029 591.35 84.646 591.35 84.8992V87.3661H590.008V81.9884V81.9914Z" fill="white"/>
<path d="M599.02 81.8652C600.427 81.8652 601.092 82.6671 601.092 82.6671L600.499 83.584C600.499 83.584 599.939 83.0048 599.093 83.0048C598.1 83.0048 597.456 83.7529 597.456 84.6712C597.456 85.5895 598.11 86.358 599.136 86.358C600.044 86.358 600.721 85.6725 600.721 85.6725L601.239 86.6214C601.239 86.6214 600.467 87.4961 599.02 87.4961C597.234 87.4961 596.093 86.2416 596.093 84.6814C596.093 83.1212 597.234 81.8667 599.02 81.8667V81.8652Z" fill="white"/>
<path d="M604.799 81.8652C606.447 81.8652 607.769 83.0354 607.769 84.6799C607.769 86.3245 606.447 87.4946 604.811 87.4946C603.174 87.4946 601.841 86.3347 601.841 84.6799C601.841 83.0252 603.163 81.8652 604.801 81.8652H604.799ZM604.809 86.358C605.676 86.358 606.405 85.6827 606.405 84.6814C606.405 83.6801 605.676 83.0048 604.809 83.0048C603.943 83.0048 603.204 83.6903 603.204 84.6814C603.204 85.6725 603.933 86.358 604.809 86.358Z" fill="white"/>
<path d="M609.003 85.7666C609.003 85.7666 609.595 86.3575 610.471 86.3575C610.852 86.3575 611.18 86.1887 611.18 85.8729C611.18 85.0709 608.559 85.1772 608.559 83.4482C608.559 82.4469 609.458 81.8662 610.62 81.8662C611.783 81.8662 612.427 82.4775 612.427 82.4775L611.93 83.4686C611.93 83.4686 611.434 83.0043 610.609 83.0043C610.26 83.0043 609.922 83.1513 609.922 83.489C609.922 84.2487 612.543 84.1526 612.543 85.883C612.543 86.7796 611.761 87.4971 610.482 87.4971C609.14 87.4971 608.389 86.7068 608.389 86.7068L609.001 85.7681L609.003 85.7666Z" fill="white"/>
<path d="M618.258 81.865C619.441 81.865 619.812 82.5505 619.812 82.5505H619.832C619.832 82.5505 619.822 82.4137 619.822 82.2449V79.8828H621.164V87.3693H619.896V86.9268C619.896 86.726 619.918 86.579 619.918 86.579H619.896C619.896 86.579 619.441 87.4959 618.206 87.4959C616.747 87.4959 615.818 86.3461 615.818 84.6812C615.818 83.0162 616.833 81.8665 618.258 81.8665V81.865ZM618.512 86.368C619.209 86.368 619.864 85.8615 619.864 84.671C619.864 83.8385 619.421 83.0148 618.522 83.0148C617.783 83.0148 617.17 83.6159 617.17 84.6812C617.17 85.7465 617.72 86.368 618.512 86.368Z" fill="white"/>
<path d="M624.998 81.8652C626.551 81.8652 627.385 82.9932 627.385 84.4165C627.385 84.5751 627.353 84.9332 627.353 84.9332H623.634C623.719 85.8719 624.448 86.3565 625.25 86.3565C626.117 86.3565 626.804 85.7656 626.804 85.7656L627.321 86.7247C627.321 86.7247 626.497 87.4946 625.155 87.4946C623.37 87.4946 622.26 86.2081 622.26 84.6799C622.26 83.0237 623.391 81.8652 624.998 81.8652ZM626.033 84.0163C626.013 83.2886 625.558 82.8986 624.966 82.8986C624.279 82.8986 623.803 83.3206 623.676 84.0163H626.033Z" fill="white"/>
<path d="M581.526 94.9428H578.894L578.26 96.8624H576.854L579.495 89.376H580.922L583.563 96.8624H582.157L581.523 94.9428H581.526ZM580.204 90.6713C580.204 90.6713 580.035 91.4091 579.888 91.8312L579.223 93.8353H581.189L580.524 91.8312C580.387 91.4091 580.228 90.6713 580.228 90.6713H580.207H580.204Z" fill="white"/>
<path d="M584.24 89.375H585.571V94.984C585.571 95.5749 585.773 95.7219 586.121 95.7219C586.226 95.7219 586.323 95.7117 586.323 95.7117V96.8818C586.323 96.8818 586.121 96.9139 585.9 96.9139C585.16 96.9139 584.241 96.7247 584.241 95.1849V89.375H584.24Z" fill="white"/>
<path d="M587.314 89.375H588.646V90.567H587.314V89.375ZM587.314 91.4838H588.656V96.8615H587.314V91.4838Z" fill="white"/>
<path d="M590.135 91.4835H591.425V92.105C591.425 92.3058 591.403 92.4732 591.403 92.4732H591.425C591.689 91.9464 592.333 91.3555 593.179 91.3555C594.025 91.3555 594.531 91.7353 594.753 92.463H594.773C595.069 91.8838 595.767 91.3555 596.613 91.3555C597.733 91.3555 598.377 91.9886 598.377 93.4003V96.8583H597.035V93.6535C597.035 93.0423 596.919 92.578 596.296 92.578C595.609 92.578 595.155 93.1267 594.996 93.8005C594.944 94.0115 594.934 94.2429 594.934 94.4962V96.8583H593.592V93.6535C593.592 93.0728 593.497 92.578 592.863 92.578C592.166 92.578 591.71 93.1267 591.541 93.8121C591.489 94.013 591.479 94.2546 591.479 94.4976V96.8597H590.137V91.4821L590.135 91.4835Z" fill="white"/>
<path d="M602.136 91.3574C603.689 91.3574 604.524 92.4853 604.524 93.9087C604.524 94.0673 604.492 94.4254 604.492 94.4254H600.772C600.857 95.3641 601.586 95.8487 602.388 95.8487C603.255 95.8487 603.942 95.2578 603.942 95.2578L604.459 96.2169C604.459 96.2169 603.635 96.9868 602.294 96.9868C600.507 96.9868 599.398 95.7003 599.398 94.1721C599.398 92.5159 600.529 91.3574 602.135 91.3574H602.136ZM603.173 93.5085C603.151 92.7808 602.698 92.3907 602.105 92.3907C601.418 92.3907 600.943 92.8128 600.816 93.5085H603.173Z" fill="white"/>
<path d="M605.633 91.4835H606.923V92.105C606.923 92.3058 606.901 92.4732 606.901 92.4732H606.923C607.155 92.0191 607.747 91.3555 608.835 91.3555C610.029 91.3555 610.705 91.9769 610.705 93.4003V96.8583H609.373V93.6739C609.373 93.0204 609.204 92.5765 608.517 92.5765C607.83 92.5765 607.27 93.0306 607.07 93.6739C606.996 93.8951 606.975 94.1382 606.975 94.3914V96.8583H605.633V91.4806V91.4835Z" fill="white"/>
<path d="M612.341 92.6329H611.644V91.5676H612.373V90.0176H613.683V91.5676H614.908V92.6329H613.683V94.7214C613.683 95.6077 614.38 95.7343 614.751 95.7343C614.898 95.7343 614.994 95.7125 614.994 95.7125V96.8826C614.994 96.8826 614.835 96.9146 614.583 96.9146C613.833 96.9146 612.343 96.6934 612.343 94.8902V92.6343L612.341 92.6329Z" fill="white"/>
<path d="M618.649 91.3574C620.297 91.3574 621.619 92.5275 621.619 94.1721C621.619 95.8167 620.297 96.9868 618.661 96.9868C617.024 96.9868 615.691 95.8269 615.691 94.1721C615.691 92.5174 617.013 91.3574 618.651 91.3574H618.649ZM618.659 95.8502C619.526 95.8502 620.255 95.1749 620.255 94.1736C620.255 93.1723 619.526 92.497 618.659 92.497C617.793 92.497 617.054 93.1825 617.054 94.1736C617.054 95.1647 617.783 95.8502 618.659 95.8502Z" fill="white"/>
<path d="M622.854 95.2588C622.854 95.2588 623.446 95.8497 624.323 95.8497C624.704 95.8497 625.032 95.6809 625.032 95.365C625.032 94.5631 622.411 94.6694 622.411 92.9404C622.411 91.9391 623.309 91.3584 624.472 91.3584C625.634 91.3584 626.279 91.9697 626.279 91.9697L625.782 92.9608C625.782 92.9608 625.286 92.4965 624.46 92.4965C624.112 92.4965 623.773 92.6435 623.773 92.9811C623.773 93.7408 626.394 93.6448 626.394 95.3752C626.394 96.2717 625.612 96.9892 624.333 96.9892C622.991 96.9892 622.24 96.199 622.24 96.199L622.853 95.2603L622.854 95.2588Z" fill="white"/>
<path d="M581.526 104.435H578.894L578.26 106.355H576.854L579.495 98.8682H580.922L583.563 106.355H582.157L581.523 104.435H581.526ZM580.204 100.163C580.204 100.163 580.035 100.901 579.888 101.323L579.223 103.327H581.189L580.524 101.323C580.387 100.901 580.228 100.163 580.228 100.163H580.207H580.204Z" fill="white"/>
<path d="M584.524 98.8672H586.944C587.758 98.8672 588.127 98.9298 588.455 99.0782C589.205 99.4159 589.68 100.133 589.68 101.124C589.68 102.021 589.205 102.853 588.413 103.171V103.191C588.413 103.191 588.519 103.296 588.667 103.561L590.21 106.355H588.688L587.198 103.561H585.888V106.355H584.524V98.8686V98.8672ZM587.113 102.379C587.843 102.379 588.296 101.947 588.296 101.199C588.296 100.451 587.99 100.039 586.922 100.039H585.887V102.379H587.112H587.113Z" fill="white"/>
<path d="M594.794 98.7402C596.633 98.7402 597.584 99.6891 597.584 99.6891L596.907 100.702C596.907 100.702 596.105 99.9846 594.91 99.9846C593.23 99.9846 592.332 101.145 592.332 102.558C592.332 104.182 593.442 105.236 594.846 105.236C595.977 105.236 596.726 104.455 596.726 104.455V103.581H595.574V102.411H597.951V106.355H596.789V105.997C596.789 105.838 596.799 105.681 596.799 105.681H596.779C596.779 105.681 595.997 106.483 594.601 106.483C592.625 106.483 590.924 104.953 590.924 102.603C590.924 100.43 592.562 98.7431 594.792 98.7431L594.794 98.7402Z" fill="white"/>
<path d="M599.464 98.8672H603.955V100.037H600.828V101.999H603.354V103.169H600.828V105.184H604.124V106.354H599.464V98.8672Z" fill="white"/>
<path d="M605.539 98.8672H606.902L609.745 103.19C610.031 103.622 610.368 104.35 610.368 104.35H610.388C610.388 104.35 610.314 103.632 610.314 103.19V98.8672H611.666V106.354H610.314L607.471 102.041C607.185 101.609 606.848 100.881 606.848 100.881H606.828C606.828 100.881 606.902 101.599 606.902 102.041V106.354H605.539V98.8672Z" fill="white"/>
<path d="M615.121 100.037H612.659V98.8672H618.947V100.037H616.485V106.354H615.121V100.037Z" fill="white"/>
<path d="M619.937 98.8672H621.301V106.354H619.937V98.8672Z" fill="white"/>
<path d="M623.203 98.8672H624.566L627.409 103.19C627.695 103.622 628.032 104.35 628.032 104.35H628.052C628.052 104.35 627.978 103.632 627.978 103.19V98.8672H629.33V106.354H627.978L625.135 102.041C624.849 101.609 624.512 100.881 624.512 100.881H624.492C624.492 100.881 624.566 101.599 624.566 102.041V106.354H623.203V98.8672Z" fill="white"/>
<path d="M634.961 104.435H632.33L631.696 106.355H630.29L632.931 98.8682H634.357L636.999 106.355H635.593L634.958 104.435H634.961ZM633.64 100.163C633.64 100.163 633.471 100.901 633.323 101.323L632.658 103.327H634.624L633.959 101.323C633.822 100.901 633.663 100.163 633.663 100.163H633.641H633.64Z" fill="white"/>
<path d="M577.935 24.2822H582.106C584.059 24.2822 585.379 25.7114 585.379 27.73C585.379 29.7486 584.059 31.2055 582.106 31.2055H580.393V34.3025H577.935V24.2822ZM581.602 29.1039C582.459 29.1039 582.879 28.529 582.879 27.73C582.879 26.931 582.458 26.3838 581.644 26.3838H580.394V29.1024H581.602V29.1039Z" fill="white"/>
<path d="M590.114 26.916C592.403 26.916 594.23 28.4442 594.23 30.7145C594.23 32.9849 592.403 34.4709 590.128 34.4709C587.853 34.4709 586.027 32.9718 586.027 30.7145C586.027 28.4573 587.853 26.916 590.114 26.916ZM590.127 32.4523C591.012 32.4523 591.77 31.793 591.77 30.7145C591.77 29.6361 591.012 28.9346 590.127 28.9346C589.241 28.9346 588.483 29.6216 588.483 30.7145C588.483 31.8075 589.241 32.4523 590.127 32.4523Z" fill="white"/>
<path d="M595.492 27.0856H597.824V28.3052C597.824 28.5439 597.797 28.7535 597.797 28.7535H597.824C598.134 27.7725 599.047 26.959 600.127 26.959C600.267 26.959 600.409 26.9866 600.409 26.9866V29.3691C600.409 29.3691 600.212 29.3269 599.917 29.3269C599.341 29.3269 598.4 29.5088 598.049 30.5887C597.964 30.855 597.922 31.1781 597.922 31.5696V34.3028H595.492V27.0841V27.0856Z" fill="white"/>
<path d="M604.65 27.0854H607.08V31.3177C607.08 31.9901 607.347 32.2709 607.853 32.2709C608.893 32.2709 609.385 31.3599 609.385 30.28V27.084H611.815V34.3027H609.482V33.6725C609.482 33.4338 609.51 33.2242 609.51 33.2242H609.482C609.089 33.9956 608.19 34.4715 607.22 34.4715C605.788 34.4715 604.65 33.7991 604.65 31.7659V27.084V27.0854Z" fill="white"/>
<path d="M613.611 27.0848H615.943V27.715C615.943 27.9537 615.916 28.1633 615.916 28.1633H615.943C616.28 27.603 616.969 26.916 618.246 26.916C619.708 26.916 620.846 27.5884 620.846 29.6216V34.3035H618.416V30.0713C618.416 29.3989 618.149 29.118 617.615 29.118C616.857 29.118 616.393 29.5386 616.183 30.1557C616.084 30.4366 616.043 30.7582 616.043 31.109V34.305H613.613V27.0863L613.611 27.0848Z" fill="white"/>
<path d="M577.655 38.7313H579.845V39.0952C579.845 39.3338 579.818 39.558 579.818 39.558H579.845C579.845 39.558 580.506 38.5625 582.036 38.5625C584.002 38.5625 585.294 40.1037 585.294 42.3465C585.294 44.5892 583.848 46.1174 581.924 46.1174C580.744 46.1174 580.083 45.4304 580.083 45.4304H580.055C580.055 45.4304 580.083 45.6822 580.083 46.0475V48.753H577.653V38.7313H577.655ZM581.432 44.1148C582.191 44.1148 582.851 43.4977 582.851 42.3916C582.851 41.2855 582.275 40.6117 581.432 40.6117C580.702 40.6117 580.013 41.1443 580.013 42.3916C580.013 43.2605 580.477 44.1148 581.432 44.1148Z" fill="white"/>
<path d="M590.253 41.4509H590.351V41.3243C590.351 40.7218 589.887 40.5253 589.283 40.5253C588.37 40.5253 587.33 41.2123 587.33 41.2123L586.487 39.5022C586.487 39.5022 587.737 38.5635 589.521 38.5635C591.557 38.5635 592.779 39.671 592.779 41.5062V45.9495H590.56V45.5144C590.56 45.2757 590.587 45.0661 590.587 45.0661H590.56C590.56 45.0661 590.026 46.1169 588.509 46.1169C587.161 46.1169 586.051 45.2204 586.051 43.7897C586.051 41.6867 589.127 41.4495 590.252 41.4495L590.253 41.4509ZM589.186 44.2686C589.817 44.2686 590.38 43.5816 590.38 42.9936V42.8394H590.156C589.383 42.8394 588.499 43.0635 588.499 43.666C588.499 44.0022 588.709 44.2686 589.187 44.2686H589.186Z" fill="white"/>
<path d="M594.467 38.7308H596.897V45.9495H594.467V38.7308ZM595.802 35.9277H598.204L596.547 38.0308H594.666L595.803 35.9277H595.802Z" fill="white"/>
<path d="M599.172 43.4278C599.172 43.4278 599.973 44.157 601.013 44.157C601.378 44.157 601.729 44.0595 601.729 43.8208C601.729 43.1906 598.344 43.1193 598.344 40.766C598.344 39.4066 599.651 38.5654 601.322 38.5654C602.994 38.5654 603.864 39.3921 603.864 39.3921L603.036 41.1167C603.036 41.1167 602.333 40.5273 601.322 40.5273C600.957 40.5273 600.606 40.6248 600.606 40.878C600.606 41.4252 603.991 41.5082 603.991 43.8353C603.991 45.0681 602.896 46.1203 601.027 46.1203C599.159 46.1203 598.134 45.055 598.134 45.055L599.174 43.4293L599.172 43.4278Z" fill="white"/>
<path d="M578.132 55.0733C578.132 55.0733 578.932 55.8025 579.972 55.8025C580.337 55.8025 580.688 55.705 580.688 55.4663C580.688 54.8361 577.303 54.7648 577.303 52.4115C577.303 51.0521 578.61 50.2109 580.282 50.2109C581.953 50.2109 582.824 51.0376 582.824 51.0376L581.995 52.7622C581.995 52.7622 581.292 52.1728 580.282 52.1728C579.917 52.1728 579.565 52.2703 579.565 52.5235C579.565 53.0708 582.951 53.1537 582.951 55.4809C582.951 56.7136 581.855 57.7658 579.987 57.7658C578.119 57.7658 577.093 56.7005 577.093 56.7005L578.133 55.0748L578.132 55.0733Z" fill="white"/>
<path d="M584.269 50.3783H586.699V57.5969H584.269V50.3783ZM584.298 47.5752H586.673V49.4672H584.298V47.5752Z" fill="white"/>
<path d="M588.498 50.3788H590.83V51.009C590.83 51.2476 590.802 51.4572 590.802 51.4572H590.83C591.167 50.8969 591.855 50.21 593.133 50.21C594.594 50.21 595.732 50.8823 595.732 52.9155V57.5975H593.302V53.3652C593.302 52.6928 593.035 52.4119 592.501 52.4119C591.743 52.4119 591.279 52.8325 591.069 53.4496C590.97 53.7305 590.929 54.0522 590.929 54.4029V57.5989H588.499V50.3802L588.498 50.3788Z" fill="white"/>
<path d="M577.935 59.2227H580.393V63.2308H584.045V59.2227H586.502V69.2444H584.045V65.3192H580.393V69.2444H577.935V59.2227Z" fill="white"/>
<path d="M592.234 64.7449H592.332V64.6183C592.332 64.0157 591.868 63.8193 591.264 63.8193C590.351 63.8193 589.311 64.5062 589.311 64.5062L588.468 62.7961C588.468 62.7961 589.718 61.8574 591.502 61.8574C593.538 61.8574 594.76 62.965 594.76 64.8002V69.2435H592.54V68.8083C592.54 68.5696 592.568 68.36 592.568 68.36H592.54C592.54 68.36 592.007 69.4108 590.49 69.4108C589.142 69.4108 588.032 68.5143 588.032 67.0837C588.032 64.9807 591.108 64.7434 592.233 64.7434L592.234 64.7449ZM591.167 67.5625C591.798 67.5625 592.361 66.8756 592.361 66.2876V66.1333H592.136C591.363 66.1333 590.48 66.3574 590.48 66.96C590.48 67.2962 590.69 67.5625 591.168 67.5625H591.167Z" fill="white"/>
<path d="M596.448 62.0262H598.78V62.6564C598.78 62.8951 598.752 63.1047 598.752 63.1047H598.78C599.117 62.5997 599.791 61.8574 600.928 61.8574C601.841 61.8574 602.572 62.2635 602.951 63.077H602.979C603.358 62.4745 604.214 61.8574 605.297 61.8574C606.617 61.8574 607.642 62.572 607.642 64.563V69.2449H605.212V64.9705C605.212 64.4378 605.114 64.0594 604.65 64.0594C603.877 64.0594 603.47 64.6197 603.316 65.4187C603.259 65.6705 603.259 65.9659 603.259 66.2599V69.2449H600.829V64.9705C600.829 64.4378 600.73 64.0594 600.268 64.0594C599.509 64.0594 599.115 64.5921 598.948 65.3634C598.891 65.6298 598.878 65.9529 598.878 66.2599V69.2449H596.448V62.0262Z" fill="white"/>
<path d="M609.342 59.2231H611.772V62.0116C611.772 62.3755 611.744 62.6287 611.744 62.6287H611.772C611.772 62.6287 612.446 61.8574 613.725 61.8574C615.691 61.8574 616.983 63.3986 616.983 65.6413C616.983 67.8841 615.537 69.4122 613.613 69.4122C612.278 69.4122 611.632 68.5987 611.632 68.5987H611.604C611.604 68.5987 611.619 68.7806 611.619 69.0047V69.2434H609.344V59.2217L609.342 59.2231ZM613.12 67.4082C613.878 67.4082 614.539 66.7911 614.539 65.685C614.539 64.5789 613.963 63.9051 613.12 63.9051C612.389 63.9051 611.701 64.4377 611.701 65.685C611.701 66.5539 612.165 67.4082 613.12 67.4082Z" fill="white"/>
<path d="M618.289 62.026H620.621V63.2456C620.621 63.4843 620.594 63.6939 620.594 63.6939H620.621C620.93 62.713 621.843 61.8994 622.924 61.8994C623.064 61.8994 623.206 61.9271 623.206 61.9271V64.3095C623.206 64.3095 623.009 64.2673 622.714 64.2673C622.138 64.2673 621.197 64.4492 620.846 65.5291C620.761 65.7955 620.719 66.1185 620.719 66.51V69.2432H618.289V62.0246V62.026Z" fill="white"/>
<path d="M627.574 61.8569C629.709 61.8569 630.917 63.3429 630.917 65.3469C630.917 65.5856 630.861 66.1037 630.861 66.1037H626.296C626.479 66.9871 627.209 67.3932 627.982 67.3932C629.022 67.3932 629.978 66.664 629.978 66.664L630.876 68.3595C630.876 68.3595 629.711 69.4103 627.785 69.4103C625.201 69.4103 623.811 67.546 623.811 65.6263C623.811 63.5102 625.243 61.8555 627.575 61.8555L627.574 61.8569ZM628.472 64.7167C628.472 64.1695 628.093 63.6791 627.517 63.6791C626.814 63.6791 626.477 64.1841 626.352 64.7167H628.472Z" fill="white"/>
<path d="M623.267 28.054C623.267 26.7413 624.238 25.7734 625.565 25.7734C626.892 25.7734 627.864 26.7427 627.864 28.054C627.864 29.3653 626.892 30.3346 625.565 30.3346C624.238 30.3346 623.267 29.3653 623.267 28.054ZM627.493 28.054C627.493 26.9508 626.694 26.1285 625.564 26.1285C624.433 26.1285 623.634 26.9508 623.634 28.054C623.634 29.1572 624.433 29.9795 625.564 29.9795C626.694 29.9795 627.493 29.1572 627.493 28.054ZM625.577 28.3975H625.171V29.2925H624.729V26.8155H625.615C626.118 26.8155 626.548 27.0978 626.548 27.613C626.548 27.9812 626.315 28.2257 626.007 28.3364L626.61 29.2925H626.106L625.578 28.3975H625.577ZM625.577 28.0176C625.885 28.0176 626.093 27.8823 626.093 27.613C626.093 27.3438 625.885 27.2201 625.577 27.2201H625.171V28.0176H625.577Z" fill="white"/>
</g>
<defs>
<clipPath id="clip0_68_344">
<rect width="100" height="93" fill="white" transform="translate(537 17)"/>
</clipPath>
</defs>
</svg>
